<svg width="23" height="41" viewBox="0 0 23 41" fill="none" xmlns="http://www.w3.org/2000/svg">
<path d="M14.1016 40.5H7.69594C6.62602 40.5 5.75562 39.6297 5.75562 38.5597V24.1115H2.01844C0.948438 24.1115 0.078125 23.2408 0.078125 22.1711V15.98C0.078125 14.91 0.948438 14.0397 2.01844 14.0397H5.75562V10.9394C5.75562 7.86531 6.72086 5.25 8.54672 3.37648C10.3809 1.49453 12.9441 0.5 15.9592 0.5L20.8444 0.507969C21.9125 0.509766 22.7814 1.38016 22.7814 2.4482V8.19656C22.7814 9.26648 21.9113 10.1369 20.8416 10.1369L17.5525 10.138C16.5494 10.138 16.2939 10.3391 16.2393 10.4008C16.1493 10.5031 16.0422 10.792 16.0422 11.5901V14.0395H20.5945C20.9372 14.0395 21.2692 14.124 21.5545 14.2832C22.1702 14.6272 22.5528 15.2775 22.5528 15.9803L22.5504 22.1715C22.5504 23.2408 21.68 24.1112 20.6101 24.1112H16.0421V38.5597C16.0422 39.6297 15.1716 40.5 14.1016 40.5ZM8.10055 38.155H13.6969V23.0617C13.6969 22.3473 14.2783 21.7663 14.9923 21.7663H20.2054L20.2075 16.3848H14.992C14.278 16.3848 13.6969 15.8038 13.6969 15.0893V11.5902C13.6969 10.6741 13.79 9.63219 14.4815 8.84906C15.3171 7.90242 16.6339 7.7932 17.5519 7.7932L20.4364 7.79195V2.85227L15.9573 2.845C11.1117 2.845 8.10063 5.9468 8.10063 10.9395V15.0892C8.10063 15.8033 7.51953 16.3847 6.80539 16.3847H2.42313V21.7662H6.80539C7.51953 21.7662 8.10063 22.3473 8.10063 23.0616L8.10055 38.155Z" fill="#65A5F1"/>
</svg>
