<svg width="40" height="41" viewBox="0 0 40 41" fill="none" xmlns="http://www.w3.org/2000/svg">
<g clip-path="url(#clip0_3782_16927)">
<path d="M12.5006 33.5469H7.03188V15.8906H12.5006V33.5469ZM13.0463 10.2653C13.0463 8.49742 11.6119 7.0625 9.845 7.0625C8.07125 7.0625 6.64062 8.49742 6.64062 10.2653C6.64062 12.0338 8.07133 13.4688 9.845 13.4688C11.612 13.4688 13.0463 12.0338 13.0463 10.2653ZM32.9688 23.8331C32.9688 19.0934 31.9675 15.5781 26.4306 15.5781C23.7702 15.5781 21.9842 16.9087 21.2552 18.2923H21.25V15.8906H15.9375V33.5469H21.25V24.7805C21.25 22.4845 21.8344 20.2605 24.6802 20.2605C27.4872 20.2605 27.5781 22.8859 27.5781 24.9263V33.5469H32.9688V23.8331ZM40 35.8125V5.1875C40 2.60266 37.8973 0.5 35.3125 0.5H4.6875C2.10266 0.5 0 2.60266 0 5.1875V35.8125C0 38.3973 2.10266 40.5 4.6875 40.5H35.3125C37.8973 40.5 40 38.3973 40 35.8125ZM35.3125 3.625C36.174 3.625 36.875 4.32602 36.875 5.1875V35.8125C36.875 36.674 36.174 37.375 35.3125 37.375H4.6875C3.82602 37.375 3.125 36.674 3.125 35.8125V5.1875C3.125 4.32602 3.82602 3.625 4.6875 3.625H35.3125Z" fill="#65A5F1"/>
</g>
<defs>
<clipPath id="clip0_3782_16927">
<rect width="40" height="40" fill="white" transform="translate(0 0.5)"/>
</clipPath>
</defs>
</svg>
