<svg width="25" height="25" viewBox="0 0 25 25" fill="none" xmlns="http://www.w3.org/2000/svg">
<path d="M17.2188 22.2514C16.7598 22.2514 16.2979 22.1894 15.8419 22.0644C9.67686 20.3724 4.79584 15.4944 3.10284 9.33344C2.71784 7.93244 2.92879 6.47243 3.69879 5.22443C4.47179 3.97043 5.74285 3.08543 7.18585 2.79743C8.14585 2.60543 9.09485 3.03343 9.58185 3.85443L11.1448 6.49442C11.9038 7.77642 11.5267 9.42742 10.2857 10.2534L9.15484 11.0054C10.2118 13.1754 11.9897 14.9584 14.1507 16.0144L14.9129 14.8774C15.7439 13.6384 17.3948 13.2674 18.6758 14.0304L21.3189 15.6064C22.1369 16.0944 22.5598 17.0494 22.3738 17.9814C22.0858 19.4244 21.2008 20.6954 19.9478 21.4684C19.1058 21.9864 18.1688 22.2514 17.2188 22.2514ZM7.64483 4.24942C7.59584 4.24942 7.54586 4.25444 7.49786 4.26444C6.44386 4.47544 5.53087 5.11042 4.97687 6.01142C4.42787 6.90142 4.27684 7.94043 4.55084 8.93543C6.10384 14.5884 10.5828 19.0654 16.2388 20.6174C17.2348 20.8904 18.2707 20.7384 19.1597 20.1904C20.0597 19.6354 20.6959 18.7214 20.9029 17.6854C20.9649 17.3744 20.8239 17.0554 20.5499 16.8924L17.9078 15.3164C17.3128 14.9624 16.5448 15.1354 16.1588 15.7104L15.0438 17.3754C14.8438 17.6734 14.4579 17.7874 14.1319 17.6494C11.1689 16.4104 8.75788 13.9944 7.51788 11.0204C7.37988 10.6884 7.49574 10.3064 7.79474 10.1074L9.45587 9.00241C10.0319 8.61941 10.2068 7.85242 9.85382 7.25742L8.29083 4.61841C8.15383 4.38641 7.90584 4.24942 7.64483 4.24942Z" fill="#3F8FEE"/>
</svg>
