<svg width="25" height="25" viewBox="0 0 25 25" fill="none" xmlns="http://www.w3.org/2000/svg">
<path d="M17.7206 14.3476C17.6018 14.2808 17.4671 14.205 17.3048 14.1073C17.2143 14.0526 17.1004 13.9779 16.9798 13.8987C16.3605 13.4922 15.8912 13.2045 15.4917 13.2045C15.3982 13.2045 15.3097 13.2203 15.229 13.2515C14.879 13.3862 14.5916 13.7463 14.3137 14.0944C14.2118 14.222 14.0661 14.4046 13.9776 14.4862C13.6267 14.4224 12.8866 13.9639 12.0879 13.1652C11.2883 12.3657 10.8298 11.6247 10.7668 11.2746C10.8483 11.1859 11.0324 11.039 11.1607 10.9365C11.5075 10.6596 11.8662 10.3733 12.0017 10.0244C12.1746 9.57612 11.8577 9.04002 11.3545 8.27342C11.2754 8.15277 11.2005 8.03881 11.1463 7.94895C11.0483 7.78606 10.9725 7.6513 10.9057 7.53252C10.6313 7.04492 10.45 6.72266 9.76889 6.72266C9.32681 6.72266 8.70178 7.14041 8.27841 7.55469C7.66313 8.15689 7.32422 8.85214 7.32422 9.51373C7.32539 11.3106 8.32823 13.3701 10.0756 15.1662C10.0786 15.1692 10.0816 15.17 10.0847 15.173C11.8808 16.9205 13.9414 17.9199 15.7383 17.9199H15.739C16.3997 17.9199 17.0952 17.5849 17.6973 16.9699C18.1119 16.5466 18.5303 15.9261 18.5303 15.4843C18.5303 14.8032 18.2082 14.622 17.7206 14.3476ZM15.7385 16.9915C14.2079 16.9904 12.3408 16.0628 10.7431 14.5102C9.19031 12.9123 8.26275 11.0451 8.26177 9.51467C8.26177 8.58894 9.46308 7.70877 9.77723 7.66053C9.84141 7.66081 9.87506 7.66461 9.89109 7.66733C9.93263 7.71514 10.0152 7.86186 10.0887 7.9925C10.1552 8.11072 10.238 8.25791 10.3435 8.43317C10.4072 8.53878 10.4867 8.65986 10.5709 8.78802C10.7301 9.03064 11.0502 9.51833 11.1042 9.7265C11.0139 9.85423 10.734 10.0777 10.5759 10.2039C10.1713 10.5269 9.82191 10.8058 9.82191 11.2C9.82289 12.1521 11.0493 13.4525 11.4251 13.8283C11.801 14.2041 13.1013 15.4305 14.0554 15.4315C14.4471 15.4302 14.7248 15.0822 15.0465 14.6794C15.1733 14.5205 15.3982 14.2388 15.5264 14.1491C15.7343 14.2026 16.2226 14.5231 16.4655 14.6825C16.5936 14.7666 16.7146 14.8461 16.8209 14.9103C16.9956 15.0154 17.1427 15.0982 17.261 15.1647C17.3916 15.2382 17.5383 15.3208 17.5861 15.3623C17.5889 15.3783 17.5926 15.412 17.5929 15.4761C17.5443 15.79 16.6639 16.9904 15.7385 16.9915Z" fill="#3F8FEE"/>
<path d="M22.2472 12.5455C22.2143 10.0124 21.1975 7.61864 19.3842 5.80528C17.5374 3.9585 15.0997 2.94141 12.5199 2.94141C10.0297 2.94141 7.70011 3.89962 5.9602 5.63948C4.41624 7.18345 3.46899 9.24267 3.29278 11.4379C3.12567 13.5206 3.65588 15.6283 4.78805 17.4005L3.24202 21.5795C3.21579 21.6503 3.20709 21.7265 3.21666 21.8015C3.22624 21.8765 3.25379 21.948 3.29698 22.01C3.34017 22.072 3.39772 22.1227 3.46472 22.1577C3.53171 22.1926 3.60617 22.2109 3.68175 22.2109C3.74344 22.2109 3.80569 22.193 3.8647 22.1679L7.89122 20.4545C9.42834 21.4112 11.186 21.9043 12.9908 21.9043H12.9909C15.4808 21.9043 17.8103 20.9575 19.55 19.2178C21.3222 17.4455 22.2802 15.0833 22.2472 12.5455ZM18.887 18.5663C17.3243 20.129 15.2303 20.9896 12.9907 20.9895C11.2857 20.9895 9.62691 20.4905 8.19356 19.5463C8.12907 19.5038 8.05507 19.4779 7.97816 19.471C7.90124 19.464 7.8238 19.4761 7.7527 19.5063L4.49789 20.8868L5.74945 17.5037C5.77526 17.4339 5.78409 17.359 5.7752 17.2851C5.76632 17.2112 5.73998 17.1405 5.69836 17.0789C3.39792 13.6708 3.78684 9.13866 6.62311 6.30244C8.18592 4.73963 10.2801 3.87891 12.5199 3.87891C14.8492 3.87891 17.0515 4.79845 18.7212 6.46819C20.3608 8.10769 21.28 10.2703 21.3098 12.5577C21.3394 14.8404 20.479 16.9743 18.887 18.5663Z" fill="#3F8FEE"/>
</svg>
