<svg width="40" height="41" viewBox="0 0 40 41" fill="none" xmlns="http://www.w3.org/2000/svg">
<path d="M0.788036 33.1596C4.51682 35.5168 8.84005 36.7626 13.2514 36.7513C19.768 36.7513 25.7397 34.248 30.068 29.703C34.2097 25.353 36.488 19.508 36.3747 13.5763C37.9447 12.233 39.7914 9.66795 39.7914 7.16795C39.7915 6.94766 39.7334 6.73125 39.6229 6.54063C39.5125 6.35002 39.3536 6.19198 39.1625 6.08252C38.9713 5.97306 38.7546 5.91607 38.5343 5.91732C38.314 5.91856 38.098 5.978 37.908 6.08962C36.433 6.95628 35.088 7.18295 33.7047 6.79462C30.8797 4.04128 26.6747 3.46128 23.1314 5.37128C20.0347 7.03795 18.313 10.088 18.468 13.4213C13.2169 12.7807 8.40987 10.1551 5.03304 6.08295C4.90481 5.9278 4.74101 5.80591 4.55556 5.72765C4.37012 5.64938 4.16852 5.61706 3.96791 5.63342C3.76729 5.64979 3.57359 5.71435 3.40329 5.82164C3.23298 5.92892 3.09109 6.07574 2.9897 6.24962C1.36637 9.02962 1.38304 12.2513 2.7947 14.853C2.48893 14.9038 2.21138 15.0622 2.01213 15.2997C1.81288 15.5372 1.70503 15.838 1.70804 16.148C1.71229 17.4132 1.98882 18.6627 2.51883 19.8116C3.04885 20.9605 3.81993 21.9818 4.7797 22.8063C4.60935 22.9698 4.48887 23.1782 4.43222 23.4075C4.37558 23.6367 4.38511 23.8773 4.4597 24.1013C4.86775 25.3186 5.53225 26.4341 6.40833 27.3726C7.28441 28.311 8.35167 29.0506 9.53804 29.5413C7.07239 30.7176 4.32543 31.1762 1.61137 30.8646C0.304702 30.688 -0.340298 32.4446 0.788036 33.1596ZM13.593 29.9696C14.528 29.2513 14.0314 27.7546 12.858 27.7296C11.8575 27.7084 10.8752 27.4572 9.9873 26.9953C9.09943 26.5334 8.3298 25.8734 7.73804 25.0663C8.3145 25.0313 8.88614 24.9397 9.4447 24.793C10.713 24.4496 10.653 22.6196 9.3647 22.3613C8.23749 22.1357 7.19159 21.6114 6.33635 20.8432C5.48111 20.075 4.84794 19.0912 4.50304 17.9946C5.13137 18.1496 5.77137 18.2363 6.4097 18.248C7.6747 18.2546 8.15304 16.633 7.12137 15.9546C4.79637 14.423 3.8047 11.718 4.46137 9.17462C8.55194 13.3115 14.0455 15.7636 19.8564 16.0463C20.0492 16.0559 20.2417 16.0206 20.4187 15.9433C20.5956 15.8659 20.7522 15.7485 20.8761 15.6004C21 15.4523 21.0878 15.2774 21.1327 15.0896C21.1776 14.9018 21.1783 14.7061 21.1347 14.518C20.343 11.0863 22.2597 8.68128 24.318 7.57295C26.3547 6.47295 29.6247 6.12962 32.1314 8.75962C32.8764 9.54462 35.3897 9.57462 36.668 9.27628C36.0947 10.3563 35.213 11.3813 34.388 11.958C34.2149 12.0791 34.0754 12.2422 33.9824 12.4319C33.8894 12.6217 33.8461 12.8319 33.8564 13.043C34.1247 18.518 32.0847 23.9613 28.2597 27.9763C24.4064 32.0213 19.078 34.2496 13.253 34.2496C10.9364 34.2496 8.6647 33.8729 6.51804 33.1463C9.0847 32.6496 11.523 31.563 13.593 29.9696Z" fill="#65A5F1"/>
</svg>
