<svg width="20" height="22" viewBox="0 0 20 22" fill="none" xmlns="http://www.w3.org/2000/svg">
<path fill-rule="evenodd" clip-rule="evenodd" d="M18.6677 9.4043H0.84375C0.42975 9.4043 0.09375 9.0683 0.09375 8.6543C0.09375 8.2403 0.42975 7.9043 0.84375 7.9043H18.6677C19.0817 7.9043 19.4177 8.2403 19.4177 8.6543C19.4177 9.0683 19.0817 9.4043 18.6677 9.4043Z" fill="#3F8FEE"/>
<path fill-rule="evenodd" clip-rule="evenodd" d="M14.1993 13.3096C13.7853 13.3096 13.4453 12.9736 13.4453 12.5596C13.4453 12.1456 13.7763 11.8096 14.1903 11.8096H14.1993C14.6133 11.8096 14.9493 12.1456 14.9493 12.5596C14.9493 12.9736 14.6133 13.3096 14.1993 13.3096Z" fill="#3F8FEE"/>
<path fill-rule="evenodd" clip-rule="evenodd" d="M9.76181 13.3096C9.34781 13.3096 9.00781 12.9736 9.00781 12.5596C9.00781 12.1456 9.33881 11.8096 9.75281 11.8096H9.76181C10.1758 11.8096 10.5118 12.1456 10.5118 12.5596C10.5118 12.9736 10.1758 13.3096 9.76181 13.3096Z" fill="#3F8FEE"/>
<path fill-rule="evenodd" clip-rule="evenodd" d="M5.3175 13.3096C4.9035 13.3096 4.5625 12.9736 4.5625 12.5596C4.5625 12.1456 4.8945 11.8096 5.3085 11.8096H5.3175C5.7315 11.8096 6.0675 12.1456 6.0675 12.5596C6.0675 12.9736 5.7315 13.3096 5.3175 13.3096Z" fill="#3F8FEE"/>
<path fill-rule="evenodd" clip-rule="evenodd" d="M14.1993 17.1963C13.7853 17.1963 13.4453 16.8603 13.4453 16.4463C13.4453 16.0323 13.7763 15.6963 14.1903 15.6963H14.1993C14.6133 15.6963 14.9493 16.0323 14.9493 16.4463C14.9493 16.8603 14.6133 17.1963 14.1993 17.1963Z" fill="#3F8FEE"/>
<path fill-rule="evenodd" clip-rule="evenodd" d="M9.76181 17.1963C9.34781 17.1963 9.00781 16.8603 9.00781 16.4463C9.00781 16.0323 9.33881 15.6963 9.75281 15.6963H9.76181C10.1758 15.6963 10.5118 16.0323 10.5118 16.4463C10.5118 16.8603 10.1758 17.1963 9.76181 17.1963Z" fill="#3F8FEE"/>
<path fill-rule="evenodd" clip-rule="evenodd" d="M5.3175 17.1963C4.9035 17.1963 4.5625 16.8603 4.5625 16.4463C4.5625 16.0323 4.8945 15.6963 5.3085 15.6963H5.3175C5.7315 15.6963 6.0675 16.0323 6.0675 16.4463C6.0675 16.8603 5.7315 17.1963 5.3175 17.1963Z" fill="#3F8FEE"/>
<path fill-rule="evenodd" clip-rule="evenodd" d="M13.793 5.291C13.379 5.291 13.043 4.955 13.043 4.541V1.25C13.043 0.836 13.379 0.5 13.793 0.5C14.207 0.5 14.543 0.836 14.543 1.25V4.541C14.543 4.955 14.207 5.291 13.793 5.291Z" fill="#3F8FEE"/>
<path fill-rule="evenodd" clip-rule="evenodd" d="M5.71484 5.291C5.30084 5.291 4.96484 4.955 4.96484 4.541V1.25C4.96484 0.836 5.30084 0.5 5.71484 0.5C6.12884 0.5 6.46484 0.836 6.46484 1.25V4.541C6.46484 4.955 6.12884 5.291 5.71484 5.291Z" fill="#3F8FEE"/>
<mask id="mask0_3868_1408" style="mask-type:luminance" maskUnits="userSpaceOnUse" x="0" y="2" width="20" height="20">
<path fill-rule="evenodd" clip-rule="evenodd" d="M0 2.0791H19.5V22H0V2.0791Z" fill="white"/>
</mask>
<g mask="url(#mask0_3868_1408)">
<path fill-rule="evenodd" clip-rule="evenodd" d="M5.521 3.5791C2.928 3.5791 1.5 4.9621 1.5 7.4731V16.5221C1.5 19.0881 2.928 20.5001 5.521 20.5001H13.979C16.572 20.5001 18 19.1141 18 16.5981V7.4731C18.004 6.2381 17.672 5.2781 17.013 4.6181C16.335 3.9381 15.29 3.5791 13.988 3.5791H5.521ZM13.979 22.0001H5.521C2.116 22.0001 0 19.9011 0 16.5221V7.4731C0 4.1451 2.116 2.0791 5.521 2.0791H13.988C15.697 2.0791 17.11 2.5911 18.075 3.5581C19.012 4.4991 19.505 5.8521 19.5 7.4751V16.5981C19.5 19.9301 17.384 22.0001 13.979 22.0001Z" fill="#3F8FEE"/>
</g>
</svg>
