<svg width="14" height="25" viewBox="0 0 14 25" fill="none" xmlns="http://www.w3.org/2000/svg">
<path d="M8.46094 24.5H4.61756C3.97561 24.5 3.45337 23.9778 3.45337 23.3358V14.6669H1.21106C0.569063 14.6669 0.046875 14.1445 0.046875 13.5027V9.788C0.046875 9.146 0.569063 8.62381 1.21106 8.62381H3.45337V6.76362C3.45337 4.91919 4.03252 3.35 5.12803 2.22589C6.22852 1.09672 7.76644 0.5 9.57553 0.5L12.5066 0.504781C13.1475 0.505859 13.6688 1.02809 13.6688 1.66892V5.11794C13.6688 5.75989 13.1468 6.28212 12.505 6.28212L10.5315 6.28283C9.92962 6.28283 9.77634 6.40348 9.74358 6.44047C9.68958 6.50187 9.62531 6.67522 9.62531 7.15405V8.62367H12.3567C12.5623 8.62367 12.7615 8.67439 12.9327 8.76992C13.3021 8.97631 13.5317 9.3665 13.5317 9.78819L13.5302 13.5029C13.5302 14.1445 13.008 14.6667 12.366 14.6667H9.62527V23.3358C9.62531 23.9778 9.10294 24.5 8.46094 24.5ZM4.86033 23.093H8.21813V14.037C8.21813 13.6084 8.56697 13.2598 8.99541 13.2598H12.1232L12.1245 10.0309H8.99522C8.56678 10.0309 8.21813 9.68225 8.21813 9.25358V7.15409C8.21813 6.60444 8.274 5.97931 8.68889 5.50944C9.19027 4.94145 9.98034 4.87592 10.5311 4.87592L12.2618 4.87517V1.91136L9.57441 1.907C6.66703 1.907 4.86038 3.76808 4.86038 6.76367V9.25353C4.86038 9.68197 4.51172 10.0308 4.08323 10.0308H1.45388V13.2597H4.08323C4.51172 13.2597 4.86038 13.6084 4.86038 14.037L4.86033 23.093Z" fill="white"/>
</svg>
