<svg width="32" height="33" viewBox="0 0 32 33" fill="none" xmlns="http://www.w3.org/2000/svg">
<g clip-path="url(#clip0_3830_475)">
<path d="M7.09188 19.8388L5.978 23.9971L1.90681 24.0832C0.690125 21.8265 0 19.2446 0 16.5008C0 13.8476 0.64525 11.3456 1.789 9.14258H1.78988L5.41438 9.80708L7.00213 13.4098C6.66981 14.3786 6.48869 15.4186 6.48869 16.5008C6.48881 17.6753 6.70156 18.8006 7.09188 19.8388Z" fill="#FBBB00"/>
<path d="M31.7203 13.5117C31.904 14.4796 31.9998 15.4792 31.9998 16.5007C31.9998 17.6462 31.8794 18.7636 31.6499 19.8414C30.8711 23.5091 28.8359 26.7117 26.0166 28.9781L26.0157 28.9772L21.4504 28.7443L20.8043 24.7108C22.6751 23.6137 24.1371 21.8968 24.9072 19.8414H16.3516V13.5117H31.7203Z" fill="#518EF8"/>
<path d="M26.0172 28.9763L26.0181 28.9772C23.2761 31.1811 19.793 32.4998 16.0014 32.4998C9.9082 32.4998 4.61064 29.0941 1.9082 24.0823L7.09327 19.8379C8.44445 23.444 11.9231 26.0111 16.0014 26.0111C17.7543 26.0111 19.3966 25.5372 20.8058 24.71L26.0172 28.9763Z" fill="#28B446"/>
<path d="M26.2128 4.1835L21.0295 8.427C19.5711 7.51538 17.8471 6.98875 16.0001 6.98875C11.8295 6.98875 8.28575 9.67356 7.00225 13.409L1.78994 9.14175H1.78906C4.45194 4.00769 9.81631 0.5 16.0001 0.5C19.8822 0.5 23.4418 1.88288 26.2128 4.1835Z" fill="#F14336"/>
</g>
<defs>
<clipPath id="clip0_3830_475">
<rect width="32" height="32" fill="white" transform="translate(0 0.5)"/>
</clipPath>
</defs>
</svg>
