<svg width="20" height="21" viewBox="0 0 20 21" fill="none" xmlns="http://www.w3.org/2000/svg">
<path d="M19.1356 14.0968C19.5454 13.574 19.742 13.0136 19.7169 12.4364C19.6918 11.8007 19.4074 11.303 19.1732 10.9977C19.4451 10.3202 19.5496 9.25366 18.642 8.42555C17.9771 7.81911 16.8478 7.54726 15.2836 7.62254C14.1837 7.67273 13.2635 7.87767 13.2259 7.88603H13.2217C13.0126 7.92367 12.7909 7.96968 12.5651 8.01987C12.5484 7.7522 12.5944 7.0872 13.0879 5.58992C13.6734 3.80824 13.64 2.44479 12.9791 1.53304C12.2849 0.575282 11.1765 0.5 10.8503 0.5C10.5366 0.5 10.2481 0.629653 10.0431 0.868047C9.57889 1.40757 9.63326 2.40297 9.69181 2.86303C9.13974 4.34358 7.59227 7.97386 6.2832 8.98181C6.2581 8.99854 6.23719 9.01945 6.21628 9.04036C5.8315 9.44605 5.5722 9.88519 5.39654 10.27C5.14978 10.1361 4.86956 10.0609 4.56844 10.0609H2.0172C1.05526 10.0609 0.277344 10.843 0.277344 11.8007V18.597C0.277344 19.559 1.05944 20.3369 2.0172 20.3369H4.56844C4.94066 20.3369 5.2878 20.2198 5.5722 20.019L6.55505 20.1361C6.70562 20.157 9.38232 20.4958 12.1301 20.4414C12.6278 20.4791 13.0962 20.5 13.5312 20.5C14.2799 20.5 14.9323 20.4414 15.476 20.3243C16.7558 20.0525 17.6299 19.5088 18.0732 18.71C18.412 18.0993 18.412 17.4929 18.3576 17.1081C19.1899 16.3553 19.3363 15.523 19.307 14.9375C19.2903 14.5987 19.215 14.3101 19.1356 14.0968ZM2.0172 19.2077C1.67843 19.2077 1.40658 18.9316 1.40658 18.597V11.7965C1.40658 11.4578 1.68261 11.1859 2.0172 11.1859H4.56844C4.90721 11.1859 5.17906 11.4619 5.17906 11.7965V18.5928C5.17906 18.9316 4.90302 19.2035 4.56844 19.2035H2.0172V19.2077ZM18.0649 13.6075C17.8892 13.7915 17.8558 14.0717 17.9896 14.2892C17.9896 14.2934 18.1611 14.5862 18.182 14.9877C18.2113 15.5355 17.9478 16.0207 17.3957 16.4348C17.1991 16.5853 17.1197 16.8446 17.2033 17.0788C17.2033 17.083 17.3832 17.6351 17.0904 18.1579C16.8102 18.6598 16.187 19.0194 15.2418 19.2202C14.4848 19.3833 13.4559 19.4126 12.1929 19.3122H12.1343C9.44506 19.3708 6.72653 19.0194 6.69725 19.0153H6.69307L6.27065 18.9651C6.29575 18.848 6.30829 18.7225 6.30829 18.597V11.7965C6.30829 11.6167 6.27902 11.441 6.22883 11.2779C6.30411 10.9977 6.51323 10.3745 7.00674 9.84337C8.88462 8.35445 10.7207 3.33145 10.8001 3.11397C10.8336 3.02614 10.842 2.92995 10.8252 2.83375C10.7541 2.36533 10.7792 1.79235 10.8796 1.62087C11.1013 1.62505 11.6993 1.68779 12.059 2.18549C12.4856 2.7752 12.4689 3.82915 12.0088 5.22606C11.3062 7.35487 11.2476 8.47574 11.8039 8.96926C12.0799 9.21602 12.448 9.22857 12.7157 9.13237C12.9708 9.07382 13.2134 9.02363 13.4434 8.98599C13.4601 8.98181 13.481 8.97762 13.4978 8.97344C14.7817 8.69322 17.082 8.52175 17.8809 9.24948C18.5584 9.86846 18.0774 10.6882 18.0231 10.776C17.8683 11.0102 17.9143 11.3156 18.1234 11.5038C18.1276 11.5079 18.5668 11.922 18.5877 12.4783C18.6044 12.8505 18.4287 13.2311 18.0649 13.6075Z" fill="#3F8FEE"/>
</svg>
