<svg width="24" height="25" viewBox="0 0 24 25" fill="none" xmlns="http://www.w3.org/2000/svg">
<g clip-path="url(#clip0_3782_16745)">
<path d="M7.50037 20.3281H4.21913V9.73438H7.50037V20.3281ZM7.82775 6.35919C7.82775 5.29845 6.96712 4.4375 5.907 4.4375C4.84275 4.4375 3.98438 5.29845 3.98438 6.35919C3.98438 7.4203 4.8428 8.28125 5.907 8.28125C6.96717 8.28125 7.82775 7.4203 7.82775 6.35919ZM19.7812 14.4999C19.7812 11.6561 19.1805 9.54688 15.8584 9.54688C14.2621 9.54688 13.1905 10.3452 12.7531 11.1754H12.75V9.73438H9.5625V20.3281H12.75V15.0683C12.75 13.6907 13.1006 12.3563 14.8081 12.3563C16.4923 12.3563 16.5469 13.9315 16.5469 15.1558V20.3281H19.7812V14.4999ZM24 21.6875V3.3125C24 1.76159 22.7384 0.5 21.1875 0.5H2.8125C1.26159 0.5 0 1.76159 0 3.3125V21.6875C0 23.2384 1.26159 24.5 2.8125 24.5H21.1875C22.7384 24.5 24 23.2384 24 21.6875ZM21.1875 2.375C21.7044 2.375 22.125 2.79561 22.125 3.3125V21.6875C22.125 22.2044 21.7044 22.625 21.1875 22.625H2.8125C2.29561 22.625 1.875 22.2044 1.875 21.6875V3.3125C1.875 2.79561 2.29561 2.375 2.8125 2.375H21.1875Z" fill="white"/>
</g>
<defs>
<clipPath id="clip0_3782_16745">
<rect width="24" height="24" fill="white" transform="translate(0 0.5)"/>
</clipPath>
</defs>
</svg>
