<svg width="24" height="25" viewBox="0 0 24 25" fill="none" xmlns="http://www.w3.org/2000/svg">
<path d="M16.5518 22.2524C16.0928 22.2524 15.6309 22.1904 15.1749 22.0654C9.00986 20.3734 4.12885 15.4954 2.43585 9.33441C2.05085 7.93341 2.2618 6.47341 3.0318 5.22541C3.8048 3.97141 5.07586 3.0864 6.51886 2.7984C7.47886 2.6064 8.42785 3.03441 8.91485 3.85541L10.4778 6.49539C11.2368 7.77739 10.8597 9.4284 9.61871 10.2544L8.48785 11.0064C9.54485 13.1764 11.3227 14.9594 13.4837 16.0154L14.2459 14.8784C15.0769 13.6394 16.7278 13.2684 18.0088 14.0314L20.6519 15.6074C21.4699 16.0954 21.8928 17.0504 21.7068 17.9824C21.4188 19.4254 20.5338 20.6964 19.2808 21.4694C18.4388 21.9874 17.5018 22.2524 16.5518 22.2524ZM6.97784 4.2504C6.92884 4.2504 6.87887 4.25541 6.83087 4.26541C5.77687 4.47641 4.86387 5.11139 4.30987 6.01239C3.76087 6.90239 3.60985 7.9414 3.88385 8.9364C5.43685 14.5894 9.91584 19.0664 15.5718 20.6184C16.5678 20.8914 17.6037 20.7394 18.4927 20.1914C19.3927 19.6364 20.0289 18.7224 20.2359 17.6864C20.2979 17.3754 20.1569 17.0564 19.8829 16.8934L17.2408 15.3174C16.6458 14.9634 15.8778 15.1364 15.4918 15.7114L14.3768 17.3764C14.1768 17.6744 13.7909 17.7884 13.4649 17.6504C10.5019 16.4114 8.09089 13.9954 6.85089 11.0214C6.71289 10.6894 6.82875 10.3074 7.12775 10.1084L8.78888 9.00339C9.36488 8.62039 9.53983 7.85339 9.18683 7.25839L7.62384 4.61939C7.48684 4.38739 7.23884 4.2504 6.97784 4.2504Z" fill="white"/>
</svg>
