<svg width="24" height="25" viewBox="0 0 24 25" fill="none" xmlns="http://www.w3.org/2000/svg">
<path d="M0.473603 20.0954C2.71087 21.5097 5.30481 22.2572 7.9516 22.2504C11.8616 22.2504 15.4446 20.7484 18.0416 18.0214C20.5266 15.4114 21.8936 11.9044 21.8256 8.34538C22.7676 7.53938 23.8756 6.00038 23.8756 4.50038C23.8757 4.3682 23.8408 4.23836 23.7745 4.12399C23.7083 4.00962 23.613 3.9148 23.4983 3.84912C23.3836 3.78345 23.2535 3.74925 23.1214 3.75C22.9892 3.75075 22.8596 3.78641 22.7456 3.85338C21.8606 4.37338 21.0536 4.50938 20.2236 4.27638C18.5286 2.62438 16.0056 2.27638 13.8796 3.42238C12.0216 4.42238 10.9886 6.25238 11.0816 8.25238C7.93091 7.86802 5.0467 6.29264 3.0206 3.84938C2.94366 3.75629 2.84538 3.68316 2.73412 3.6362C2.62285 3.58924 2.50189 3.56985 2.38152 3.57966C2.26116 3.58948 2.14494 3.62822 2.04275 3.69259C1.94057 3.75696 1.85544 3.84505 1.7946 3.94938C0.820603 5.61738 0.830603 7.55038 1.6776 9.11138C1.49414 9.14189 1.32761 9.23696 1.20806 9.37943C1.08851 9.5219 1.0238 9.7024 1.0256 9.88838C1.02816 10.6475 1.19407 11.3972 1.51208 12.0866C1.83009 12.7759 2.29274 13.3887 2.8686 13.8834C2.76639 13.9815 2.6941 14.1066 2.66012 14.2441C2.62613 14.3816 2.63185 14.526 2.6766 14.6604C2.92143 15.3907 3.32013 16.0601 3.84578 16.6231C4.37143 17.1862 5.01178 17.63 5.7236 17.9244C4.24422 18.6302 2.59604 18.9053 0.967603 18.7184C0.183603 18.6124 -0.203397 19.6664 0.473603 20.0954ZM8.1566 18.1814C8.7176 17.7504 8.4196 16.8524 7.7156 16.8374C7.11525 16.8247 6.52589 16.6739 5.99316 16.3968C5.46044 16.1197 4.99866 15.7236 4.6436 15.2394C4.98948 15.2184 5.33246 15.1635 5.6676 15.0754C6.4286 14.8694 6.3926 13.7714 5.6196 13.6164C4.94328 13.481 4.31574 13.1664 3.80259 12.7055C3.28945 12.2446 2.90955 11.6543 2.7026 10.9964C3.0796 11.0894 3.4636 11.1414 3.8466 11.1484C4.6056 11.1524 4.8926 10.1794 4.2736 9.77238C2.8786 8.85338 2.2836 7.23038 2.6776 5.70438C5.13195 8.18652 8.42805 9.65776 11.9146 9.82738C12.0303 9.83315 12.1458 9.81199 12.252 9.76557C12.3581 9.71915 12.4521 9.64873 12.5264 9.55985C12.6008 9.47098 12.6535 9.36606 12.6804 9.25337C12.7073 9.14067 12.7077 9.02326 12.6816 8.91038C12.2066 6.85138 13.3566 5.40838 14.5916 4.74338C15.8136 4.08338 17.7756 3.87738 19.2796 5.45538C19.7266 5.92638 21.2346 5.94438 22.0016 5.76538C21.6576 6.41338 21.1286 7.02838 20.6336 7.37438C20.5297 7.44708 20.446 7.54493 20.3902 7.65878C20.3344 7.77262 20.3084 7.89875 20.3146 8.02538C20.4756 11.3104 19.2516 14.5764 16.9566 16.9854C14.6446 19.4124 11.4476 20.7494 7.9526 20.7494C6.5626 20.7494 5.1996 20.5234 3.9116 20.0874C5.4516 19.7894 6.9146 19.1374 8.1566 18.1814Z" fill="white"/>
</svg>
