<svg width="20" height="21" viewBox="0 0 20 21" fill="none" xmlns="http://www.w3.org/2000/svg">
<path d="M15.0536 12.3466C14.9348 12.2798 14.8001 12.204 14.6379 12.1064C14.5473 12.0517 14.4334 11.9769 14.3128 11.8977C13.6935 11.4912 13.2242 11.2035 12.8247 11.2035C12.7312 11.2035 12.6427 11.2194 12.562 11.2505C12.212 11.3852 11.9246 11.7453 11.6467 12.0934C11.5449 12.221 11.3991 12.4036 11.3106 12.4852C10.9597 12.4214 10.2196 11.9629 9.42095 11.1643C8.62135 10.3647 8.16277 9.62373 8.09982 9.27366C8.18134 9.18488 8.36537 9.03802 8.49371 8.93551C8.84054 8.65862 9.19918 8.3723 9.3347 8.02341C9.50757 7.57515 9.19074 7.03904 8.68754 6.27244C8.60837 6.15179 8.53355 6.03784 8.47927 5.94798C8.38126 5.78509 8.30551 5.65032 8.23866 5.53154C7.9643 5.04394 7.78304 4.72168 7.1019 4.72168C6.65982 4.72168 6.03479 5.13943 5.61141 5.55371C4.99613 6.15591 4.65723 6.85116 4.65723 7.51276C4.6584 9.30966 5.66124 11.3692 7.40865 13.1652C7.41165 13.1682 7.41465 13.169 7.41774 13.172C9.21381 14.9195 11.2744 15.9189 13.0713 15.9189H13.072C13.7327 15.9189 14.4282 15.5839 15.0303 14.9689C15.4449 14.5456 15.8633 13.9251 15.8633 13.4833C15.8633 12.8023 15.5412 12.6211 15.0536 12.3466ZM13.0715 14.9905C11.5409 14.9894 9.67384 14.0619 8.07615 12.5092C6.52332 10.9113 5.59576 9.04412 5.59477 7.5137C5.59477 6.58796 6.79609 5.70779 7.11024 5.65955C7.17441 5.65984 7.20807 5.66363 7.2241 5.66635C7.26563 5.71416 7.34818 5.86088 7.42168 5.99152C7.4882 6.10974 7.57102 6.25693 7.67649 6.4322C7.74024 6.5378 7.81974 6.65888 7.90388 6.78704C8.06312 7.02966 8.38323 7.51735 8.43718 7.72552C8.34695 7.85326 8.06696 8.07676 7.9089 8.20295C7.50432 8.52596 7.15491 8.80487 7.15491 9.19904C7.1559 10.1512 8.38229 11.4515 8.75813 11.8273C9.13398 12.2032 10.4343 13.4296 11.3884 13.4305C11.7801 13.4292 12.0578 13.0813 12.3795 12.6784C12.5063 12.5195 12.7312 12.2379 12.8594 12.1481C13.0674 12.2017 13.5556 12.5221 13.7985 12.6816C13.9266 12.7657 14.0476 12.8451 14.1539 12.9093C14.3286 13.0144 14.4757 13.0972 14.594 13.1637C14.7246 13.2372 14.8713 13.3198 14.9191 13.3614C14.9219 13.3773 14.9256 13.411 14.9259 13.4751C14.8773 13.789 13.9969 14.9894 13.0715 14.9905Z" fill="white"/>
<path d="M19.5802 10.5446C19.5473 8.01138 18.5305 5.61766 16.7172 3.8043C14.8704 1.95752 12.4327 0.94043 9.85295 0.94043C7.36271 0.94043 5.03312 1.89865 3.29321 3.63851C1.74924 5.18248 0.801993 7.24169 0.62579 9.4369C0.45868 11.5196 0.988883 13.6273 2.12106 15.3995L0.575024 19.5785C0.548799 19.6494 0.540102 19.7255 0.549673 19.8005C0.559243 19.8755 0.586799 19.947 0.629991 20.009C0.673182 20.0711 0.730729 20.1217 0.797726 20.1567C0.864723 20.1917 0.939182 20.2099 1.01476 20.2099C1.07645 20.2099 1.1387 20.192 1.19771 20.167L5.22423 18.4535C6.76135 19.4102 8.51898 19.9033 10.3238 19.9033H10.3239C12.8138 19.9033 15.1433 18.9565 16.883 17.2168C18.6552 15.4445 19.6132 13.0823 19.5802 10.5446ZM16.22 16.5653C14.6573 18.128 12.5633 18.9886 10.3237 18.9886C8.61873 18.9885 6.95991 18.4895 5.52657 17.5453C5.46208 17.5028 5.38808 17.477 5.31117 17.47C5.23425 17.463 5.1568 17.4751 5.08571 17.5053L1.8309 18.8858L3.08246 15.5028C3.10827 15.433 3.1171 15.358 3.10821 15.2842C3.09933 15.2103 3.07299 15.1396 3.03137 15.0779C0.730931 11.6698 1.11985 7.13768 3.95612 4.30146C5.51893 2.73865 7.61312 1.87793 9.85295 1.87793C12.1822 1.87793 14.3845 2.79748 16.0542 4.46721C17.6938 6.10671 18.613 8.26934 18.6428 10.5567C18.6724 12.8395 17.812 14.9734 16.22 16.5653Z" fill="white"/>
</svg>
