<svg width="25" height="24" viewBox="0 0 25 24" fill="none" xmlns="http://www.w3.org/2000/svg">
<path d="M22.0596 10.9597L21.1996 9.9697H21.5696C22.2096 9.9697 22.7296 9.4497 22.7296 8.8097V8.4297C22.7296 7.7897 22.2096 7.2697 21.5696 7.2697H21.2396C20.9596 7.2697 20.7396 7.4897 20.7396 7.7697C20.7396 8.0497 20.9596 8.2697 21.2396 8.2697H21.5696C21.6596 8.2697 21.7296 8.3397 21.7296 8.4297V8.8097C21.7296 8.8997 21.6596 8.9697 21.5696 8.9697H20.8696L20.1196 6.5197C19.8869 5.75546 19.4138 5.08671 18.7706 4.61288C18.1274 4.13904 17.3485 3.88541 16.5496 3.8897H8.44961C6.79961 3.8897 5.36961 4.9497 4.87961 6.5197L4.12961 8.9697H3.42961C3.33961 8.9697 3.26961 8.8997 3.26961 8.8097V8.4297C3.26961 8.3397 3.33961 8.2697 3.42961 8.2697H3.75961C4.03961 8.2697 4.25961 8.0497 4.25961 7.7697C4.25961 7.4897 4.03961 7.2697 3.75961 7.2697H3.42961C2.78961 7.2697 2.26961 7.7897 2.26961 8.4297V8.8097C2.26961 9.4497 2.78961 9.9697 3.42961 9.9697H3.79961L2.93961 10.9597C2.39961 11.5797 2.09961 12.3797 2.09961 13.2097V16.0797C2.09961 16.6897 2.43961 17.2197 2.94961 17.4997V18.6297C2.94961 19.4597 3.61961 20.1297 4.44961 20.1297H6.16961C6.99961 20.1297 7.66961 19.4597 7.66961 18.6297V17.7097H17.3296V18.6297C17.3296 19.4597 17.9996 20.1297 18.8296 20.1297H20.5496C21.3796 20.1297 22.0496 19.4597 22.0496 18.6297V17.4997C22.5496 17.2197 22.8996 16.6997 22.8996 16.0797V13.2097C22.8996 12.3797 22.5996 11.5797 22.0596 10.9597ZM3.69961 11.6197L4.65961 10.5197C4.70808 10.4695 4.74256 10.4074 4.75961 10.3397L4.95961 9.6897L4.98961 9.5997L5.84961 6.8197C6.02126 6.26129 6.36732 5.77258 6.83704 5.42524C7.30676 5.0779 7.87542 4.89021 8.45961 4.8897H16.5496C17.7596 4.8897 18.8096 5.6597 19.1596 6.8197L20.0196 9.5997C20.0196 9.5997 20.0296 9.6597 20.0496 9.6897L20.2496 10.3397C20.2667 10.4074 20.3011 10.4695 20.3496 10.5197L21.3096 11.6197C21.6896 12.0597 21.9096 12.6297 21.9096 13.2197V14.6697H19.6296C19.2996 14.6697 19.0196 14.3997 19.0196 14.0597V13.4197C19.0196 13.0897 19.2896 12.8097 19.6296 12.8097H20.8496C21.1296 12.8097 21.3496 12.5897 21.3496 12.3097C21.3496 12.0297 21.1296 11.8097 20.8496 11.8097H19.6296C18.7396 11.8097 18.0196 12.5297 18.0196 13.4197V14.0597C18.0196 14.9497 18.7396 15.6697 19.6296 15.6697H21.9096V16.0897C21.9096 16.4297 21.6296 16.7097 21.2896 16.7097H16.1496V14.9997C16.1496 14.7197 15.9296 14.4997 15.6496 14.4997H9.36961C9.08961 14.4997 8.86961 14.7197 8.86961 14.9997V16.7097H3.72961C3.38961 16.7097 3.10961 16.4297 3.10961 16.0897V15.6697H5.38961C6.27961 15.6697 6.99961 14.9497 6.99961 14.0597V13.4197C6.99961 12.5297 6.27961 11.8097 5.38961 11.8097H4.16961C3.88961 11.8097 3.66961 12.0297 3.66961 12.3097C3.66961 12.5897 3.88961 12.8097 4.16961 12.8097H5.38961C5.71961 12.8097 5.99961 13.0797 5.99961 13.4197V14.0597C5.99961 14.3897 5.72961 14.6697 5.38961 14.6697H3.10961V13.2197C3.10961 12.6297 3.31961 12.0697 3.70961 11.6197H3.69961ZM6.66961 18.6197C6.66961 18.8997 6.44961 19.1197 6.16961 19.1197H4.44961C4.16961 19.1197 3.94961 18.8997 3.94961 18.6197V17.6997H6.66961V18.6197ZM9.85961 16.6997V15.4897H15.1396V16.6997H9.85961ZM21.0496 18.6197C21.0496 18.8997 20.8296 19.1197 20.5496 19.1197H18.8296C18.5496 19.1197 18.3296 18.8997 18.3296 18.6197V17.6997H21.0496V18.6197Z" fill="#070707"/>
<path d="M6.48926 9.95996H18.5093C18.7893 9.95996 19.0093 9.73996 19.0093 9.45996C19.0093 9.17996 18.7893 8.95996 18.5093 8.95996H6.48926C6.20926 8.95996 5.98926 9.17996 5.98926 9.45996C5.98926 9.73996 6.20926 9.95996 6.48926 9.95996ZM16.5893 11.8H8.40926C8.12926 11.8 7.90926 12.02 7.90926 12.3C7.90926 12.58 8.12926 12.8 8.40926 12.8H16.5893C16.8693 12.8 17.0893 12.58 17.0893 12.3C17.0893 12.02 16.8693 11.8 16.5893 11.8Z" fill="#070707"/>
</svg>
