<svg width="25" height="24" viewBox="0 0 25 24" fill="none" xmlns="http://www.w3.org/2000/svg">
<g clip-path="url(#clip0_3782_16709)">
<path d="M24.0455 9.71546C23.7727 9.44274 23.3864 9.26092 22.9773 9.26092H20.7045L14.6364 2.96547C14.5682 2.46547 14.3636 2.03365 14.0227 1.71547C13.6364 1.30637 13.0909 1.0791 12.5 1.0791C11.9091 1.0791 11.3636 1.3291 10.9773 1.71547C10.6364 2.05637 10.4318 2.48819 10.3636 2.96547L4.29545 9.28365H2.02273C1.61364 9.28365 1.22727 9.44274 0.954545 9.73819C0.681818 10.0109 0.5 10.3973 0.5 10.8064V21.3973C0.5 21.8064 0.681818 22.1927 0.954545 22.4655C1.22727 22.7382 1.61364 22.92 2.02273 22.92H22.9773C23.3864 22.92 23.7727 22.7382 24.0455 22.4655C24.3182 22.1927 24.5 21.8064 24.5 21.3973V10.8064C24.5 10.3746 24.3182 10.0109 24.0455 9.71546ZM11.8636 2.5791C12.0227 2.42001 12.25 2.30637 12.5 2.30637C12.75 2.30637 12.9773 2.42001 13.1364 2.5791C13.2955 2.73819 13.4091 2.96547 13.4091 3.21547C13.4091 3.46547 13.2955 3.69274 13.1364 3.85183L13.1136 3.87456C12.9545 4.03365 12.7273 4.12456 12.5 4.12456C12.25 4.12456 12.0227 4.03365 11.8636 3.85183C11.7045 3.69274 11.5909 3.46547 11.5909 3.21547C11.5909 2.96547 11.6818 2.73819 11.8636 2.5791ZM10.6818 4.39728C10.7727 4.53365 10.8636 4.64728 10.9545 4.73819C11.3636 5.14728 11.9091 5.39728 12.5 5.39728C13.0682 5.39728 13.5909 5.17001 13.9773 4.80637L14.0227 4.76092C14.1364 4.64728 14.2273 4.53365 14.2955 4.42001L18.9773 9.30637H6L10.6818 4.39728ZM23.1818 21.6018C23.1364 21.6473 23.0682 21.67 22.9773 21.67H2.02273C1.95455 21.67 1.88636 21.6473 1.81818 21.5791C1.77273 21.5336 1.72727 21.4655 1.72727 21.3746V10.8064C1.72727 10.7382 1.75 10.67 1.79545 10.6018C1.84091 10.5564 1.90909 10.5336 2 10.5336H22.9545C23.0227 10.5336 23.0909 10.5564 23.1591 10.6018C23.2045 10.6473 23.2273 10.7155 23.2273 10.8064V21.3973H23.25C23.25 21.4655 23.2273 21.5336 23.1818 21.6018Z" fill="#070707"/>
<path d="M12.0453 13.7155C11.8407 13.5791 11.6362 13.4882 11.3862 13.4427C11.1589 13.3746 10.8862 13.3518 10.6135 13.3518C10.2726 13.3518 9.99982 13.3746 9.818 13.3746C9.61346 13.3746 9.49982 13.3746 9.4771 13.3973C9.15891 13.42 8.95437 13.5791 8.86346 13.8518C8.84073 13.8973 8.84073 13.9655 8.818 14.0336V15.6246C8.818 17.0109 8.79528 17.8973 8.79528 18.2836C8.79528 18.6473 9.02255 18.8518 9.45437 18.8518C9.65891 18.8518 9.84073 18.8064 9.95437 18.7155C10.068 18.6246 10.1362 18.4655 10.1362 18.2836V17.1246H10.318C10.568 17.1246 10.7953 17.1246 10.9771 17.1018C11.1589 17.1018 11.2953 17.0791 11.3862 17.0564C11.5907 17.0109 11.7726 16.9427 11.9544 16.8291C12.1135 16.7155 12.2726 16.5791 12.3862 16.3973C12.5226 16.2382 12.6135 16.0564 12.6816 15.8518C12.7498 15.67 12.7726 15.4655 12.7953 15.2609C12.818 14.92 12.7726 14.6246 12.6362 14.3518C12.4998 14.1018 12.318 13.8746 12.0453 13.7155ZM11.4998 15.42C11.4771 15.4882 11.4316 15.5564 11.4089 15.6246C11.318 15.7609 11.2271 15.8291 11.0907 15.8746C11.0225 15.8973 10.9316 15.8973 10.818 15.92H10.1589V14.5336H10.6362C10.8862 14.5336 11.068 14.5564 11.2044 14.6246C11.318 14.67 11.4089 14.7382 11.4544 14.8291C11.4998 14.92 11.5453 15.0336 11.5453 15.17C11.5453 15.2609 11.5226 15.3518 11.4998 15.42ZM6.61346 13.5109C6.29528 13.3746 5.95437 13.3291 5.59073 13.3291C4.90891 13.3291 4.27255 13.5791 3.74982 14.1246C3.4771 14.3973 3.27255 14.7155 3.13619 15.0564C2.99982 15.3973 2.93164 15.7836 2.93164 16.2155C2.93164 17.0109 3.20437 17.6473 3.7271 18.1473C3.99982 18.3973 4.27255 18.5791 4.59073 18.6927C4.90891 18.8064 5.2271 18.8746 5.568 18.8746C5.95437 18.8746 6.29528 18.8064 6.61346 18.67C6.93164 18.5336 7.2271 18.3291 7.4771 18.0564C7.7271 17.7836 7.93164 17.4655 8.068 17.1473C8.20437 16.8064 8.27255 16.4427 8.27255 16.0564C8.27255 15.2836 7.99982 14.6246 7.4771 14.1246C7.20437 13.8291 6.93164 13.6473 6.61346 13.5109ZM6.86346 16.6473C6.79528 16.8291 6.70437 17.0109 6.568 17.17C6.318 17.4882 5.99982 17.6246 5.63619 17.6246C5.43164 17.6246 5.24982 17.6018 5.09073 17.5336C4.93164 17.4655 4.79528 17.3746 4.65891 17.2155C4.52255 17.0791 4.43164 16.92 4.36346 16.7382C4.29528 16.5564 4.27255 16.3518 4.27255 16.1246C4.27255 15.8973 4.29528 15.67 4.36346 15.4882C4.43164 15.3064 4.52255 15.1246 4.63619 14.9882C4.88619 14.6927 5.18164 14.5564 5.54528 14.5564C5.74982 14.5564 5.90891 14.6018 6.09073 14.6473C6.24982 14.7155 6.40891 14.8291 6.54528 14.9655C6.68164 15.1018 6.79528 15.2609 6.86346 15.4427C6.90891 15.6246 6.95437 15.8291 6.95437 16.0564C6.95437 16.2609 6.93164 16.4655 6.86346 16.6473ZM16.3635 17.6018H15.8862C15.7044 17.6018 15.4998 17.6018 15.2498 17.6246H14.5453V16.6927H15.9089C16.0907 16.6927 16.2271 16.6473 16.3407 16.5564C16.4316 16.4655 16.4998 16.3291 16.4998 16.1473C16.4998 15.92 16.4544 15.7609 16.318 15.67C16.2498 15.6246 16.1816 15.6018 16.0907 15.5791C15.9998 15.5564 15.9089 15.5564 15.818 15.5564C15.4998 15.5564 15.1362 15.5791 14.7044 15.5791H14.5907L14.6135 14.9655V14.5564H15.9316C16.2271 14.5564 16.3862 14.5564 16.4544 14.5336H16.4771C16.6135 14.4882 16.7044 14.42 16.7498 14.3064C16.7953 14.2155 16.8407 14.0791 16.818 13.92C16.818 13.8518 16.7953 13.7609 16.7726 13.7155C16.7498 13.6473 16.7044 13.5791 16.6589 13.5336C16.6135 13.4882 16.5453 13.4427 16.4771 13.42C16.4089 13.3973 16.3407 13.3746 16.2498 13.3746H14.0453C13.8407 13.3746 13.6816 13.42 13.568 13.5109C13.4998 13.5564 13.4544 13.6246 13.4089 13.6927C13.3635 13.7609 13.3635 13.8518 13.3407 13.9427V18.1018C13.3407 18.2155 13.3635 18.3064 13.4089 18.3973C13.4544 18.4882 13.5226 18.5564 13.5907 18.6018C13.6589 18.6473 13.7498 18.67 13.8862 18.6927C13.9998 18.7155 14.1362 18.7155 14.2953 18.7155H16.3862C16.568 18.7155 16.7271 18.6473 16.818 18.5564C16.9089 18.4427 16.9771 18.3064 16.9771 18.1018C16.9771 17.92 16.9316 17.7836 16.8407 17.67C16.6816 17.67 16.5453 17.6018 16.3635 17.6018ZM22.0453 16.6018V14.0109C22.0453 13.5791 21.8407 13.3518 21.4089 13.3518C21.2953 13.3518 21.2044 13.3746 21.1135 13.3973C21.0226 13.42 20.9544 13.4655 20.8862 13.5336C20.818 13.6018 20.7953 13.67 20.7498 13.7609C20.7271 13.8518 20.7044 13.9427 20.7044 14.0791L20.7271 15.5336V16.42L20.568 16.17L18.8862 13.8064C18.8407 13.7382 18.7726 13.67 18.7271 13.6246C18.6816 13.5791 18.6135 13.5109 18.568 13.4882C18.5226 13.4427 18.4544 13.42 18.3862 13.3973C18.318 13.3746 18.2498 13.3746 18.1816 13.3746C17.9998 13.3746 17.818 13.42 17.6816 13.5109C17.5907 13.5564 17.5453 13.6246 17.4998 13.6927C17.4544 13.7609 17.4316 13.8518 17.4316 13.9427V18.2155C17.4316 18.3973 17.4998 18.5564 17.6362 18.6473C17.7498 18.7382 17.9089 18.7836 18.1135 18.7836C18.318 18.7836 18.4771 18.7155 18.568 18.6018C18.6816 18.4882 18.7271 18.3291 18.7271 18.1246V15.5564L20.6362 18.2836L20.7726 18.4882C20.818 18.5564 20.8635 18.6018 20.9089 18.6246C20.9544 18.67 21.0226 18.6927 21.0907 18.7155C21.1589 18.7382 21.2271 18.7382 21.2953 18.7382C21.4998 18.7382 21.6589 18.6927 21.818 18.5791C21.8862 18.5336 21.9544 18.4655 21.9998 18.3746C22.0453 18.3064 22.068 18.2155 22.068 18.1246V17.1018L22.0453 16.8064V16.6018Z" fill="#070707"/>
</g>
<defs>
<clipPath id="clip0_3782_16709">
<rect width="24" height="24" fill="white" transform="translate(0.5)"/>
</clipPath>
</defs>
</svg>
