<svg width="25" height="24" viewBox="0 0 25 24" fill="none" xmlns="http://www.w3.org/2000/svg">
<g clip-path="url(#clip0_3782_16683)">
<path d="M23.75 10.875H14.75C14.6505 10.875 14.5552 10.9145 14.4848 10.9848C14.4145 11.0552 14.375 11.1505 14.375 11.25V12.6038C13.6904 12.21 12.9148 12.0018 12.125 12H11V11.25C11.7385 10.7015 12.2497 9.90077 12.4362 9H12.5C12.7869 8.99839 13.0672 8.91455 13.3079 8.75844C13.5486 8.60232 13.7394 8.38046 13.8578 8.11917C13.9762 7.85788 14.0172 7.56812 13.976 7.28424C13.9347 7.00036 13.8129 6.73426 13.625 6.5175V5.25C13.625 3.95707 13.1114 2.71709 12.1971 1.80285C11.2829 0.888615 10.0429 0.375 8.75 0.375C7.45707 0.375 6.21709 0.888615 5.30285 1.80285C4.38861 2.71709 3.875 3.95707 3.875 5.25V6.5175C3.6871 6.73426 3.56529 7.00036 3.52402 7.28424C3.48276 7.56812 3.52376 7.85788 3.64217 8.11917C3.76058 8.38046 3.95143 8.60232 4.19209 8.75844C4.43275 8.91455 4.71314 8.99839 5 9H5.075C5.2587 9.89909 5.7657 10.6996 6.5 11.25V12H5.375C4.18153 12 3.03693 12.4741 2.19302 13.318C1.34911 14.1619 0.875 15.3065 0.875 16.5V23.25C0.875 23.3495 0.914509 23.4448 0.984835 23.5152C1.05516 23.5855 1.15054 23.625 1.25 23.625H13.625V22.875H10.5688L9.5 16.56L9.95375 15.6525L10.8162 16.0837C10.873 16.1129 10.9362 16.1271 11 16.125C11.0786 16.1252 11.1553 16.1007 11.2192 16.0549C11.2832 16.0092 11.3311 15.9445 11.3563 15.87L12.3912 12.75C13.1109 12.8039 13.7997 13.0643 14.375 13.5V23.25C14.375 23.3495 14.4145 23.4448 14.4848 23.5152C14.5552 23.5855 14.6505 23.625 14.75 23.625H23.75C23.8495 23.625 23.9448 23.5855 24.0152 23.5152C24.0855 23.4448 24.125 23.3495 24.125 23.25V11.25C24.125 11.1505 24.0855 11.0552 24.0152 10.9848C23.9448 10.9145 23.8495 10.875 23.75 10.875ZM12.5 8.25V6.75C12.6989 6.75 12.8897 6.82902 13.0303 6.96967C13.171 7.11032 13.25 7.30109 13.25 7.5C13.25 7.69891 13.171 7.88968 13.0303 8.03033C12.8897 8.17098 12.6989 8.25 12.5 8.25ZM4.25 7.5C4.25 7.30109 4.32902 7.11032 4.46967 6.96967C4.61032 6.82902 4.80109 6.75 5 6.75V8.25C4.80109 8.25 4.61032 8.17098 4.46967 8.03033C4.32902 7.88968 4.25 7.69891 4.25 7.5ZM5 6C4.87331 6.00194 4.74735 6.01958 4.625 6.0525V5.25C4.625 4.15598 5.0596 3.10677 5.83318 2.33318C6.60677 1.5596 7.65598 1.125 8.75 1.125C9.84402 1.125 10.8932 1.5596 11.6668 2.33318C12.4404 3.10677 12.875 4.15598 12.875 5.25V6.0525C12.7526 6.01958 12.6267 6.00194 12.5 6C12.5 5.90054 12.4605 5.80516 12.3902 5.73484C12.3198 5.66451 12.2245 5.625 12.125 5.625C11.8339 5.625 11.5468 5.55723 11.2865 5.42705C11.0261 5.29687 10.7997 5.10787 10.625 4.875L10.175 4.275C10.1401 4.22843 10.0948 4.19063 10.0427 4.16459C9.99063 4.13855 9.93322 4.125 9.875 4.125C9.81678 4.125 9.75937 4.13855 9.70729 4.16459C9.65522 4.19063 9.60993 4.22843 9.575 4.275L9.125 4.875C8.95035 5.10787 8.72388 5.29687 8.46353 5.42705C8.20317 5.55723 7.91608 5.625 7.625 5.625H5.375C5.27554 5.625 5.18016 5.66451 5.10984 5.73484C5.03951 5.80516 5 5.90054 5 6ZM5.75 8.25V6.375H7.625C8.03252 6.375 8.43444 6.28012 8.79894 6.09787C9.16343 5.91562 9.48049 5.65101 9.725 5.325L9.875 5.12625L10.025 5.325C10.4435 5.8793 11.063 6.24697 11.75 6.34875V8.25C11.75 9.04565 11.4339 9.80871 10.8713 10.3713C10.3087 10.9339 9.54565 11.25 8.75 11.25C7.95435 11.25 7.19129 10.9339 6.62868 10.3713C6.06607 9.80871 5.75 9.04565 5.75 8.25ZM8.75 12C9.26645 12.0003 9.77729 11.893 10.25 11.685V12.24L8.75 14.04L7.25 12.24V11.685C7.72271 11.893 8.23356 12.0003 8.75 12ZM6.7175 15.2213L5.89625 12.75H6.69875L8.1575 14.5012L6.7175 15.2213ZM1.625 16.5C1.6226 15.5499 1.98094 14.6343 2.6276 13.9382C3.27426 13.2421 4.16104 12.8175 5.10875 12.75L6.14375 15.855C6.16629 15.9323 6.21309 16.0003 6.27725 16.0489C6.3414 16.0975 6.4195 16.1242 6.5 16.125C6.5587 16.1246 6.6165 16.1105 6.66875 16.0837L7.53125 15.6525L8 16.56L6.93125 22.875H3.875V17.625H3.125V22.875H1.625V16.5ZM7.6925 22.875L8.69375 16.875H8.80625L9.8075 22.875H7.6925ZM8.8925 16.125H8.6075L8.2025 15.3187L8.75 15.045L9.2975 15.3187L8.8925 16.125ZM10.7675 15.2213L9.3275 14.5012L10.8012 12.75H11.6038L10.7675 15.2213ZM17.375 11.625H21.125V12.375H17.375V11.625ZM23.375 22.875H15.125V11.625H16.625V12.75C16.625 12.8495 16.6645 12.9448 16.7348 13.0152C16.8052 13.0855 16.9005 13.125 17 13.125H21.5C21.5995 13.125 21.6948 13.0855 21.7652 13.0152C21.8355 12.9448 21.875 12.8495 21.875 12.75V11.625H23.375V22.875Z" fill="#070707"/>
<path d="M17.75 13.875H16.25C16.1505 13.875 16.0552 13.9145 15.9848 13.9848C15.9145 14.0552 15.875 14.1505 15.875 14.25V15.75C15.875 15.8495 15.9145 15.9448 15.9848 16.0152C16.0552 16.0855 16.1505 16.125 16.25 16.125H17.75C17.8495 16.125 17.9448 16.0855 18.0152 16.0152C18.0855 15.9448 18.125 15.8495 18.125 15.75V14.25C18.125 14.1505 18.0855 14.0552 18.0152 13.9848C17.9448 13.9145 17.8495 13.875 17.75 13.875ZM17.375 15.375H16.625V14.625H17.375V15.375ZM17.75 16.875H16.25C16.1505 16.875 16.0552 16.9145 15.9848 16.9848C15.9145 17.0552 15.875 17.1505 15.875 17.25V18.75C15.875 18.8495 15.9145 18.9448 15.9848 19.0152C16.0552 19.0855 16.1505 19.125 16.25 19.125H17.75C17.8495 19.125 17.9448 19.0855 18.0152 19.0152C18.0855 18.9448 18.125 18.8495 18.125 18.75V17.25C18.125 17.1505 18.0855 17.0552 18.0152 16.9848C17.9448 16.9145 17.8495 16.875 17.75 16.875ZM17.375 18.375H16.625V17.625H17.375V18.375ZM17.75 19.875H16.25C16.1505 19.875 16.0552 19.9145 15.9848 19.9848C15.9145 20.0552 15.875 20.1505 15.875 20.25V21.75C15.875 21.8495 15.9145 21.9448 15.9848 22.0152C16.0552 22.0855 16.1505 22.125 16.25 22.125H17.75C17.8495 22.125 17.9448 22.0855 18.0152 22.0152C18.0855 21.9448 18.125 21.8495 18.125 21.75V20.25C18.125 20.1505 18.0855 20.0552 18.0152 19.9848C17.9448 19.9145 17.8495 19.875 17.75 19.875ZM17.375 21.375H16.625V20.625H17.375V21.375ZM18.875 13.875H22.625V14.625H18.875V13.875ZM18.875 15.375H22.625V16.125H18.875V15.375ZM18.875 16.875H22.625V17.625H18.875V16.875ZM18.875 18.375H22.625V19.125H18.875V18.375ZM18.875 19.875H22.625V20.625H18.875V19.875ZM18.875 21.375H22.625V22.125H18.875V21.375Z" fill="#070707"/>
</g>
<defs>
<clipPath id="clip0_3782_16683">
<rect width="24" height="24" fill="white" transform="translate(0.5)"/>
</clipPath>
</defs>
</svg>
