<svg width="25" height="24" viewBox="0 0 25 24" fill="none" xmlns="http://www.w3.org/2000/svg">
<path d="M7.0168 9.40137C6.83778 9.40137 6.66609 9.47248 6.5395 9.59907C6.41291 9.72566 6.3418 9.89735 6.3418 10.0764C6.3418 10.2554 6.41291 10.4271 6.5395 10.5537C6.66609 10.6803 6.83778 10.7514 7.0168 10.7514H14.2543C14.4333 10.7514 14.605 10.6803 14.7316 10.5537C14.8582 10.4271 14.9293 10.2554 14.9293 10.0764C14.9293 9.89735 14.8582 9.72566 14.7316 9.59907C14.605 9.47248 14.4333 9.40137 14.2543 9.40137H7.0168ZM10.271 13.2331H7.0168C6.83778 13.2331 6.66609 13.3042 6.5395 13.4308C6.41291 13.5574 6.3418 13.7291 6.3418 13.9081C6.3418 14.0871 6.41291 14.2588 6.5395 14.3854C6.66609 14.512 6.83778 14.5831 7.0168 14.5831H10.271C10.4501 14.5831 10.6218 14.512 10.7483 14.3854C10.8749 14.2588 10.946 14.0871 10.946 13.9081C10.946 13.7291 10.8749 13.5574 10.7483 13.4308C10.6218 13.3042 10.4501 13.2331 10.271 13.2331Z" fill="#070707"/>
<path d="M10.1714 21.8252H5.03391C4.50195 21.8238 3.99227 21.6114 3.61682 21.2345C3.24136 20.8576 3.03082 20.3472 3.03141 19.8152V6.14269C3.03082 5.61072 3.24136 5.10026 3.61682 4.7234C3.99227 4.34654 4.50195 4.13409 5.03391 4.1327H6.42816V4.3022C6.42876 4.77555 6.61712 5.22934 6.9519 5.56399C7.28669 5.89863 7.74055 6.0868 8.21391 6.08719H14.6639C15.1373 6.0868 15.5911 5.89863 15.9259 5.56399C16.2607 5.22934 16.4491 4.77555 16.4497 4.3022V4.1327H17.8372C18.9599 4.1327 19.8389 5.01544 19.8389 6.14269V9.99019C19.8389 10.1692 19.91 10.3409 20.0366 10.4675C20.1632 10.5941 20.3349 10.6652 20.5139 10.6652C20.6929 10.6652 20.8646 10.5941 20.9912 10.4675C21.1178 10.3409 21.1889 10.1692 21.1889 9.99019V6.14269C21.1889 5.25287 20.8359 4.39937 20.2074 3.76946C19.5789 3.13956 18.7262 2.78468 17.8364 2.7827H16.4489V2.6102C16.4483 2.13684 16.26 1.68305 15.9252 1.3484C15.5904 1.01376 15.1365 0.825592 14.6632 0.825195H8.21316C7.73981 0.825592 7.28594 1.01376 6.95115 1.3484C6.61637 1.68305 6.42801 2.13684 6.42741 2.6102V2.7827H5.03391C4.14402 2.78468 3.29124 3.13953 2.66262 3.76942C2.034 4.3993 1.68086 5.2528 1.68066 6.14269V19.8152C1.68066 21.6677 3.18516 23.1752 5.03391 23.1752H10.1714C10.3504 23.1752 10.5221 23.1041 10.6487 22.9775C10.7753 22.8509 10.8464 22.6792 10.8464 22.5002C10.8464 22.3212 10.7753 22.1495 10.6487 22.0229C10.5221 21.8963 10.3504 21.8252 10.1714 21.8252ZM7.77891 2.6102C7.77891 2.3702 7.97391 2.1752 8.21391 2.1752H14.6639C14.9039 2.1752 15.0989 2.3702 15.0989 2.6102V4.30145C15.0989 4.54145 14.9039 4.73645 14.6639 4.73645H8.21391C8.09854 4.73645 7.9879 4.69061 7.90632 4.60904C7.82474 4.52746 7.77891 4.41681 7.77891 4.30145V2.6102Z" fill="#070707"/>
<path d="M22.6027 13.019C21.6787 12.0943 20.0655 12.0935 19.1407 13.019L13.1565 19.0033C12.9643 19.195 12.8368 19.442 12.792 19.7098L12.4635 21.6515C12.4288 21.857 12.4439 22.0678 12.5073 22.2663C12.5708 22.4648 12.6808 22.6453 12.8282 22.7926C12.9756 22.9399 13.1561 23.0499 13.3546 23.1132C13.5532 23.1766 13.764 23.1915 13.9695 23.1568L15.9105 22.829C16.1797 22.7833 16.4242 22.6573 16.617 22.4645L22.6012 16.4803C23.0595 16.021 23.3171 15.3988 23.3174 14.75C23.3176 14.1011 23.0606 13.4787 22.6027 13.019ZM15.6862 21.4985L13.7955 21.8758L14.112 19.958L18.4012 15.6688L19.9545 17.222L15.6862 21.4985ZM21.6472 15.5255L20.9077 16.2665L19.3552 14.714L20.0955 13.9738C20.1971 13.8716 20.3179 13.7906 20.451 13.7353C20.5841 13.6801 20.7269 13.6518 20.871 13.652C21.0879 13.6522 21.3 13.7167 21.4803 13.8373C21.6607 13.958 21.8012 14.1293 21.8843 14.3298C21.9673 14.5302 21.9891 14.7507 21.9469 14.9636C21.9047 15.1764 21.8004 15.3719 21.6472 15.5255Z" fill="#070707"/>
</svg>
