<svg width="25" height="24" viewBox="0 0 25 24" fill="none" xmlns="http://www.w3.org/2000/svg">
<path d="M13.0083 3.74895C12.9096 3.7421 12.8121 3.77455 12.7373 3.83921C12.6624 3.90388 12.6161 3.99552 12.6084 4.09417C12.6008 4.19282 12.6325 4.29049 12.6966 4.36588C12.7607 4.44128 12.8519 4.4883 12.9505 4.4967C14.1587 4.59707 15.3046 5.07564 16.2253 5.86441C17.1461 6.65319 17.7948 7.71205 18.0794 8.89057C17.6008 8.90901 17.1278 8.78249 16.7223 8.52757C15.4291 7.9215 14.018 7.60871 12.5898 7.61156C11.1616 7.61441 9.75177 7.93284 8.46102 8.54407C7.65402 9.00832 7.14627 8.85757 6.94489 8.75557C7.22459 7.68721 7.8074 6.72258 8.62303 5.97801C9.43866 5.23345 10.4523 4.74074 11.5416 4.55932C11.6368 4.53982 11.7208 4.48413 11.7757 4.40398C11.8306 4.32383 11.8523 4.22548 11.8362 4.12966C11.8201 4.03383 11.7673 3.94801 11.6892 3.89029C11.611 3.83256 11.5135 3.80743 11.4171 3.8202C4.22539 5.1627 4.24789 15.2802 11.4164 16.6306C12.2822 16.7783 13.1689 16.7489 14.023 16.5442C14.8772 16.3395 15.6809 15.9638 16.3857 15.4396C17.0905 14.9155 17.6816 14.2539 18.1235 13.4949C18.5654 12.7358 18.8487 11.8951 18.9564 11.0234C19.0642 10.1517 18.994 9.26726 18.7502 8.42347C18.5065 7.57968 18.0941 6.79408 17.5381 6.11416C16.9821 5.43424 16.2941 4.87412 15.5155 4.46766C14.7369 4.06119 13.884 3.81682 13.0083 3.74932V3.74895ZM6.92089 11.5849L8.07064 11.4574C8.29571 11.4316 8.52363 11.4648 8.73195 11.5538C8.94027 11.6429 9.1218 11.7846 9.25864 11.9652L10.4451 13.5046C10.5713 13.6717 10.6581 13.8651 10.699 14.0704L11.0095 15.7729C10.0153 15.5053 9.11125 14.9753 8.39198 14.2386C7.67271 13.5018 7.16463 12.5853 6.92089 11.5849ZM11.7996 15.9244L11.4359 13.9309C11.3727 13.6109 11.2375 13.3094 11.0406 13.0493L9.85302 11.5081C9.63624 11.2266 9.35072 11.0055 9.02388 10.8662C8.69704 10.7268 8.33986 10.6738 7.98664 10.7123L6.79189 10.8447C6.73882 10.3998 6.7426 9.94991 6.80314 9.50595C7.1419 9.6097 7.49965 9.63593 7.84992 9.5827C8.20019 9.52947 8.534 9.39815 8.82664 9.19845C10.0133 8.6566 11.3026 8.37624 12.6071 8.37636C13.9116 8.37649 15.2008 8.65711 16.3874 9.1992C16.8699 9.49001 17.4223 9.6445 17.9856 9.6462C18.3494 9.54607 18.2073 9.97807 18.244 10.2237C18.2427 10.4312 18.23 10.6386 18.2058 10.8447L17.0118 10.7123C16.6586 10.6734 16.3013 10.7261 15.9745 10.8654C15.6476 11.0046 15.362 11.2257 15.1454 11.5073L13.9551 13.0516C13.7585 13.3125 13.6238 13.6147 13.5614 13.9354L13.1988 15.9244C12.7339 15.9816 12.2638 15.9816 11.7989 15.9244H11.7996ZM13.9889 15.7726L14.2986 14.0749C14.3389 13.8689 14.4253 13.6747 14.5514 13.5068L15.7405 11.9641C15.8776 11.7839 16.0592 11.6425 16.2675 11.5537C16.4758 11.4649 16.7036 11.4319 16.9285 11.4578L18.0775 11.5853C17.8337 12.5856 17.3256 13.502 16.6063 14.2386C15.8871 14.9752 14.9831 15.505 13.9889 15.7726ZM3.79414 17.7533C3.75416 17.6622 3.67963 17.5907 3.58694 17.5546C3.49425 17.5184 3.39099 17.5206 3.29989 17.5606C3.20879 17.6006 3.1373 17.6751 3.10115 17.7678C3.06501 17.8605 3.06716 17.9637 3.10714 18.0548C3.31098 18.4365 3.43531 18.8555 3.47263 19.2866C3.50995 19.7176 3.45948 20.1518 3.32427 20.5628L3.00177 21.5191C2.98439 21.5661 2.97662 21.6161 2.97891 21.6662C2.9812 21.7163 2.99351 21.7654 3.01511 21.8106C3.03671 21.8559 3.06717 21.8963 3.10467 21.9296C3.14218 21.9629 3.18597 21.9883 3.23347 22.0043C3.28096 22.0204 3.33119 22.0267 3.38119 22.023C3.43119 22.0193 3.47993 22.0057 3.52455 21.9828C3.56917 21.9599 3.60874 21.9283 3.64094 21.8899C3.67314 21.8515 3.69731 21.807 3.71202 21.7591L4.03452 20.8028C4.20016 20.3042 4.26424 19.7775 4.22295 19.2537C4.18167 18.73 4.03586 18.2198 3.79414 17.7533Z" fill="#070707"/>
<path d="M22.7188 16.1783C23.0356 15.4585 23.0857 14.6494 22.8601 13.896L22.1578 11.55C22.0785 11.2875 21.9393 11.0469 21.7512 10.8473C21.5632 10.6476 21.3314 10.4944 21.074 10.3995L20.8303 10.3099C20.8306 10.2814 20.834 10.2529 20.834 10.224C20.834 8.01361 19.9559 5.89373 18.3929 4.33073C16.8299 2.76773 14.7101 1.88965 12.4996 1.88965C10.2892 1.88965 8.16934 2.76773 6.60635 4.33073C5.04335 5.89373 4.16526 8.01361 4.16526 10.224C4.16526 10.2533 4.16826 10.2821 4.16864 10.3114L3.92639 10.4006C3.66889 10.4952 3.43682 10.6482 3.24839 10.8475C3.05996 11.0469 2.9203 11.2872 2.84039 11.5496L2.13914 13.8971C1.9138 14.6496 1.96338 15.4576 2.27901 16.1768C2.42601 16.4719 2.52726 17.0231 2.98326 16.845C3.02833 16.8251 3.06904 16.7966 3.10306 16.7609C3.13708 16.7253 3.16375 16.6833 3.18155 16.6374C3.19934 16.5915 3.20791 16.5425 3.20677 16.4932C3.20563 16.444 3.1948 16.3955 3.17489 16.3504L2.96489 15.8741C2.72135 15.3179 2.68334 14.6933 2.85764 14.1116L3.55851 11.7656C3.60554 11.6088 3.68991 11.4656 3.80441 11.3485C3.91891 11.2314 4.0601 11.1438 4.21589 11.0933C4.26246 11.5383 4.34434 11.979 4.46076 12.411C4.23045 12.5209 4.04821 12.7111 3.94835 12.9459C3.84848 13.1807 3.83787 13.4439 3.91851 13.686L4.54101 15.5494C4.65843 15.9002 4.68272 16.2754 4.61151 16.6384C4.60201 16.6867 4.60212 16.7365 4.61183 16.7848C4.62155 16.8331 4.64068 16.879 4.66814 16.9199C4.6956 16.9608 4.73084 16.9958 4.77186 17.0231C4.81288 17.0504 4.85887 17.0693 4.9072 17.0788C4.95554 17.0883 5.00527 17.0882 5.05356 17.0785C5.10185 17.0688 5.14776 17.0497 5.18866 17.0222C5.22956 16.9948 5.26465 16.9595 5.29192 16.9185C5.3192 16.8775 5.33813 16.8315 5.34764 16.7831C5.61239 15.8306 4.88976 14.3456 4.62951 13.4479C4.60978 13.3751 4.61697 13.2976 4.64976 13.2296C4.68255 13.1617 4.73874 13.1078 4.80803 13.078C4.87732 13.0481 4.95505 13.0443 5.02696 13.0671C5.09887 13.0899 5.16014 13.1379 5.19951 13.2023C5.19951 13.2023 6.90201 15.9473 6.91551 15.9623C7.25435 16.4011 7.46874 16.9232 7.53614 17.4735C7.66551 18.3761 7.19489 19.203 6.89001 20.112C6.62354 20.6382 6.51963 21.2317 6.59151 21.8171C6.61403 21.9127 6.67312 21.9956 6.75609 22.0481C6.83906 22.1005 6.9393 22.1184 7.03528 22.0978C7.13126 22.0771 7.21532 22.0197 7.26942 21.9378C7.32353 21.8559 7.34335 21.756 7.32464 21.6596C7.29567 21.2432 7.37716 20.8266 7.56089 20.4518C7.92839 19.4216 8.42826 18.453 8.28201 17.4105C9.55958 18.1646 11.016 18.5623 12.4995 18.5623C13.983 18.5623 15.4393 18.1646 16.7169 17.4105C16.5706 18.4538 17.0701 19.4209 17.4376 20.4518C17.6216 20.8267 17.7032 21.2435 17.6743 21.66C17.6561 21.7562 17.6763 21.8556 17.7304 21.9371C17.7846 22.0186 17.8685 22.0757 17.9642 22.0963C18.0599 22.1168 18.1598 22.099 18.2426 22.0469C18.3254 21.9948 18.3845 21.9123 18.4074 21.8171C18.6238 20.2343 17.2441 18.9765 17.4628 17.4739C17.5327 16.9242 17.7468 16.4028 18.0834 15.9626C18.0969 15.9473 19.799 13.2026 19.799 13.2026C19.8384 13.1382 19.8997 13.0901 19.9717 13.0672C20.0437 13.0443 20.1215 13.0482 20.1908 13.0781C20.2602 13.1081 20.3164 13.162 20.3491 13.2301C20.3819 13.2982 20.3889 13.3758 20.369 13.4486L19.7465 15.3113C19.6115 15.7305 19.3471 17.1653 20.0915 17.0786C20.1891 17.0594 20.2751 17.0023 20.3305 16.9197C20.386 16.8372 20.4065 16.736 20.3874 16.6384C20.3161 16.2754 20.3403 15.9002 20.4575 15.5494L21.0804 13.6868C21.1612 13.4446 21.1507 13.1812 21.0509 12.9462C20.951 12.7112 20.7686 12.5209 20.5381 12.411C20.6547 11.9782 20.7366 11.5368 20.783 11.091L20.8168 11.1038C20.9646 11.1584 21.0978 11.2465 21.2058 11.3613C21.3138 11.4761 21.3937 11.6144 21.4393 11.7653L22.1416 14.1113C22.3164 14.6939 22.2779 15.3197 22.0329 15.8764L21.0849 18.0285C20.6976 18.9059 20.6541 19.8967 20.963 20.8046L21.2878 21.7609C21.3198 21.8551 21.3879 21.9328 21.4772 21.9768C21.5665 22.0208 21.6696 22.0275 21.7638 21.9955C21.8581 21.9634 21.9357 21.8953 21.9797 21.806C22.0237 21.7167 22.0304 21.6136 21.9984 21.5194L21.6733 20.5635C21.4246 19.8333 21.4596 19.0364 21.7711 18.3308L22.7188 16.1783ZM19.1619 12.807L17.4958 15.4965C17.2989 15.7495 17.1359 16.0271 17.0109 16.3223C15.7057 17.2899 14.124 17.8123 12.4992 17.8122C10.8744 17.8121 9.29275 17.2897 7.98764 16.3219C7.86266 16.027 7.69979 15.7497 7.50314 15.4969L5.83701 12.8074C5.69564 12.583 5.47614 12.4189 5.22089 12.3469C2.56026 1.2724 19.4923 -1.28735 20.0836 10.2244C20.0817 10.9427 19.9788 11.6572 19.778 12.3469C19.5228 12.4189 19.3033 12.5826 19.1619 12.807Z" fill="#070707"/>
<path d="M14.2368 10.8471C14.1637 8.55059 10.8345 8.55134 10.7617 10.8471C10.8348 13.1432 14.1641 13.1428 14.2368 10.8471ZM12.4995 11.8345C12.2409 11.8294 11.9946 11.7232 11.8135 11.5385C11.6324 11.3539 11.531 11.1055 11.531 10.8469C11.531 10.5883 11.6324 10.34 11.8135 10.1553C11.9946 9.97064 12.2409 9.86438 12.4995 9.85934C12.7581 9.86438 13.0043 9.97064 13.1854 10.1553C13.3665 10.34 13.468 10.5883 13.468 10.8469C13.468 11.1055 13.3665 11.3539 13.1854 11.5385C13.0043 11.7232 12.7581 11.8294 12.4995 11.8345Z" fill="#070707"/>
</svg>
