<svg width="28" height="29" viewBox="0 0 28 29" fill="none" xmlns="http://www.w3.org/2000/svg">
<path d="M18.5518 24.2524C18.0928 24.2524 17.6309 24.1904 17.1749 24.0654C11.0099 22.3734 6.12885 17.4954 4.43585 11.3344C4.05085 9.93341 4.2618 8.47341 5.0318 7.22541C5.8048 5.97141 7.07586 5.0864 8.51886 4.7984C9.47886 4.6064 10.4279 5.03441 10.9149 5.85541L12.4778 8.49539C13.2368 9.77739 12.8597 11.4284 11.6187 12.2544L10.4879 13.0064C11.5449 15.1764 13.3227 16.9594 15.4837 18.0154L16.2459 16.8784C17.0769 15.6394 18.7278 15.2684 20.0088 16.0314L22.6519 17.6074C23.4699 18.0954 23.8928 19.0504 23.7068 19.9824C23.4188 21.4254 22.5338 22.6964 21.2808 23.4694C20.4388 23.9874 19.5018 24.2524 18.5518 24.2524ZM8.97784 6.2504C8.92884 6.2504 8.87887 6.25541 8.83087 6.26541C7.77687 6.47641 6.86387 7.11139 6.30987 8.01239C5.76087 8.90239 5.60985 9.9414 5.88385 10.9364C7.43685 16.5894 11.9158 21.0664 17.5718 22.6184C18.5678 22.8914 19.6037 22.7394 20.4927 22.1914C21.3927 21.6364 22.0289 20.7224 22.2359 19.6864C22.2979 19.3754 22.1569 19.0564 21.8829 18.8934L19.2408 17.3174C18.6458 16.9634 17.8778 17.1364 17.4918 17.7114L16.3768 19.3764C16.1768 19.6744 15.7909 19.7884 15.4649 19.6504C12.5019 18.4114 10.0909 15.9954 8.85089 13.0214C8.71289 12.6894 8.82875 12.3074 9.12775 12.1084L10.7889 11.0034C11.3649 10.6204 11.5398 9.85339 11.1868 9.25839L9.62384 6.61939C9.48684 6.38739 9.23884 6.2504 8.97784 6.2504Z" fill="#1474FC"/>
</svg>
