<svg width="28" height="29" viewBox="0 0 28 29" fill="none" xmlns="http://www.w3.org/2000/svg">
<path d="M13.9994 17.031C11.5144 17.031 9.48438 15.0127 9.48438 12.516C9.48438 10.0194 11.5144 8.0127 13.9994 8.0127C16.4844 8.0127 18.5144 10.031 18.5144 12.5277C18.5144 15.0244 16.4844 17.031 13.9994 17.031ZM13.9994 9.7627C12.4827 9.7627 11.2344 10.9994 11.2344 12.5277C11.2344 14.056 12.471 15.2927 13.9994 15.2927C15.5277 15.2927 16.7644 14.056 16.7644 12.5277C16.7644 10.9994 15.516 9.7627 13.9994 9.7627Z" fill="#3F8FEE"/>
<path d="M14 27.053C12.2733 27.053 10.535 26.3997 9.18163 25.1047C5.73996 21.7913 1.93663 16.5063 3.37163 10.218C4.66663 4.51301 9.6483 1.95801 14 1.95801C14 1.95801 14 1.95801 14.0116 1.95801C18.3633 1.95801 23.345 4.51301 24.64 10.2297C26.0633 16.518 22.26 21.7913 18.8183 25.1047C17.465 26.3997 15.7266 27.053 14 27.053ZM14 3.70801C10.605 3.70801 6.24163 5.51634 5.08663 10.603C3.82663 16.098 7.27996 20.8347 10.4066 23.833C12.425 25.7813 15.5866 25.7813 17.605 23.833C20.72 20.8347 24.1733 16.098 22.9366 10.603C21.77 5.51634 17.395 3.70801 14 3.70801Z" fill="#3F8FEE"/>
</svg>
