<svg width="28" height="29" viewBox="0 0 28 29" fill="none" xmlns="http://www.w3.org/2000/svg">
<path d="M19.834 25.2913H8.16732C3.90898 25.2913 1.45898 22.8413 1.45898 18.583V10.4163C1.45898 6.15801 3.90898 3.70801 8.16732 3.70801H19.834C24.0923 3.70801 26.5423 6.15801 26.5423 10.4163V18.583C26.5423 22.8413 24.0923 25.2913 19.834 25.2913ZM8.16732 5.45801C4.83065 5.45801 3.20898 7.07967 3.20898 10.4163V18.583C3.20898 21.9197 4.83065 23.5413 8.16732 23.5413H19.834C23.1707 23.5413 24.7923 21.9197 24.7923 18.583V10.4163C24.7923 7.07967 23.1707 5.45801 19.834 5.45801H8.16732Z" fill="#3F8FEE"/>
<path d="M13.9986 15.515C13.0186 15.515 12.0269 15.2116 11.2686 14.5933L7.61693 11.6766C7.2436 11.3733 7.17361 10.825 7.47694 10.4516C7.78027 10.0783 8.32861 10.0083 8.70194 10.3116L12.3536 13.2283C13.2403 13.94 14.7453 13.94 15.6319 13.2283L19.2836 10.3116C19.6569 10.0083 20.2169 10.0666 20.5086 10.4516C20.8119 10.825 20.7536 11.385 20.3686 11.6766L16.7169 14.5933C15.9703 15.2116 14.9786 15.515 13.9986 15.515Z" fill="#3F8FEE"/>
</svg>
