<svg width="28" height="29" viewBox="0 0 28 29" fill="none" xmlns="http://www.w3.org/2000/svg">
<path d="M19.8967 16.6546C19.7581 16.5766 19.601 16.4882 19.4116 16.3743C19.306 16.3104 19.1731 16.2232 19.0324 16.1308C18.3099 15.6566 17.7624 15.3209 17.2963 15.3209C17.1872 15.3209 17.0839 15.3394 16.9898 15.3757C16.5815 15.5329 16.2462 15.953 15.922 16.3592C15.8031 16.508 15.6331 16.721 15.5299 16.8162C15.1205 16.7418 14.257 16.2069 13.3253 15.2751C12.3924 14.3423 11.8574 13.4778 11.7839 13.0694C11.879 12.9659 12.0937 12.7945 12.2435 12.6749C12.6481 12.3519 13.0665 12.0179 13.2246 11.6108C13.4263 11.0878 13.0567 10.4624 12.4696 9.56802C12.3772 9.42725 12.29 9.2943 12.2266 9.18947C12.1123 8.99943 12.0239 8.8422 11.9459 8.70362C11.6258 8.13477 11.4144 7.75879 10.6197 7.75879C10.1039 7.75879 9.37473 8.24616 8.8808 8.72949C8.16297 9.43206 7.76758 10.2432 7.76758 11.015C7.76895 13.1114 8.93893 15.5142 10.9776 17.6096C10.9811 17.6131 10.9846 17.614 10.9882 17.6175C13.0836 19.6562 15.4876 20.8222 17.584 20.8222H17.5848C18.3556 20.8222 19.167 20.4314 19.8695 19.7139C20.3532 19.22 20.8413 18.4961 20.8413 17.9807C20.8413 17.1861 20.4656 16.9747 19.8967 16.6546ZM17.5842 19.7391C15.7985 19.7378 13.6203 18.6557 11.7563 16.8442C9.94469 14.9801 8.86253 12.8016 8.86138 11.0161C8.86138 9.93612 10.2629 8.90925 10.6294 8.85298C10.7043 8.8533 10.7436 8.85773 10.7623 8.86091C10.8107 8.91669 10.907 9.08786 10.9928 9.24027C11.0704 9.3782 11.167 9.54991 11.2901 9.75439C11.3644 9.8776 11.4572 10.0189 11.5553 10.1684C11.7411 10.4514 12.1146 11.0204 12.1775 11.2633C12.0723 11.4123 11.7456 11.673 11.5612 11.8203C11.0892 12.1971 10.6815 12.5225 10.6815 12.9824C10.6827 14.0932 12.1135 15.6102 12.552 16.0487C12.9905 16.4872 14.5075 17.918 15.6206 17.9191C16.0776 17.9176 16.4016 17.5116 16.7769 17.0416C16.9248 16.8563 17.1872 16.5277 17.3368 16.4229C17.5794 16.4854 18.1491 16.8593 18.4324 17.0453C18.5819 17.1434 18.7231 17.2361 18.847 17.311C19.0508 17.4336 19.2225 17.5302 19.3605 17.6078C19.5128 17.6936 19.684 17.79 19.7398 17.8384C19.743 17.8571 19.7474 17.8963 19.7478 17.9711C19.691 18.3373 18.6638 19.7378 17.5842 19.7391Z" fill="#1474FC"/>
<path d="M25.1774 14.5525C25.139 11.5971 23.9527 8.80443 21.8372 6.68884C19.6826 4.53427 16.8386 3.34766 13.8289 3.34766C10.9237 3.34766 8.20579 4.46558 6.1759 6.49541C4.37461 8.29671 3.26948 10.6991 3.06391 13.2602C2.86895 15.6901 3.48752 18.149 4.80839 20.2166L3.00468 25.0921C2.97409 25.1748 2.96394 25.2636 2.97511 25.3511C2.98627 25.4385 3.01842 25.522 3.06881 25.5944C3.1192 25.6667 3.18634 25.7258 3.2645 25.7666C3.34266 25.8074 3.42953 25.8287 3.51771 25.8287C3.58968 25.8287 3.6623 25.8079 3.73115 25.7786L8.42875 23.7796C10.2221 24.8957 12.2726 25.471 14.3782 25.471H14.3784C17.2832 25.471 20.001 24.3664 22.0306 22.3368C24.0983 20.2691 25.2158 17.5131 25.1774 14.5525ZM21.2571 21.5767C19.434 23.3999 16.991 24.4039 14.3782 24.4038C12.389 24.4038 10.4537 23.8216 8.78149 22.72C8.70625 22.6705 8.61992 22.6403 8.53018 22.6321C8.44045 22.624 8.35009 22.6381 8.26715 22.6733L4.46987 24.2839L5.93003 20.337C5.96014 20.2556 5.97043 20.1682 5.96007 20.082C5.9497 19.9958 5.91897 19.9133 5.87042 19.8414C3.18657 15.8653 3.64032 10.5778 6.94929 7.26886C8.77257 5.44558 11.2158 4.44141 13.8289 4.44141C16.5464 4.44141 19.1158 5.51421 21.0638 7.46223C22.9766 9.37498 24.049 11.898 24.0837 14.5667C24.1183 17.2299 23.1145 19.7194 21.2571 21.5767Z" fill="#1474FC"/>
</svg>
