<svg width="50" height="51" viewBox="0 0 50 51" fill="none" xmlns="http://www.w3.org/2000/svg">
<g clip-path="url(#clip0_3782_16859)">
<path d="M45.1025 13.9022C45.0785 13.3607 45.0628 12.8188 45.0554 12.2768C45.0251 10.2408 43.4235 8.57932 41.3905 8.46575C35.1727 8.11848 30.31 6.05022 26.2025 2.0467C25.5152 1.41672 24.4843 1.41672 23.797 2.0467C19.6895 6.05022 14.8268 8.11848 8.60904 8.46575C6.57603 8.57932 4.97437 10.2408 4.94419 12.2768C4.93628 12.8108 4.92212 13.351 4.89712 13.9022C4.66861 25.9007 4.32603 42.3451 24.2833 49.3041C24.3786 49.3373 24.4768 49.364 24.5758 49.3837L24.5767 49.3839C24.856 49.4398 25.1436 49.4398 25.4229 49.3839C25.5228 49.364 25.6211 49.3372 25.7172 49.3036C45.6166 42.3447 45.3311 25.9575 45.1025 13.9022Z" stroke="#3F8FEE" stroke-width="3.26562" stroke-miterlimit="10"/>
<path d="M24.999 36.6777C31.1723 36.6777 36.1768 31.6733 36.1768 25.5C36.1768 19.3267 31.1723 14.3223 24.999 14.3223C18.8257 14.3223 13.8213 19.3267 13.8213 25.5C13.8213 31.6733 18.8257 36.6777 24.999 36.6777Z" stroke="#1474FC" stroke-width="3.26562" stroke-miterlimit="10"/>
<path d="M29.6947 22.6211L22.7553 29.5604L20.1035 26.9086" stroke="#3F8FEE" stroke-width="3.26562" stroke-miterlimit="10" stroke-linecap="round"/>
</g>
<defs>
<clipPath id="clip0_3782_16859">
<rect width="50" height="50" fill="white" transform="translate(0 0.5)"/>
</clipPath>
</defs>
</svg>
