<svg width="50" height="51" viewBox="0 0 50 51" fill="none" xmlns="http://www.w3.org/2000/svg">
<path d="M49.8787 42.7733C48.8045 41.0897 39.3513 26.2811 38.0388 24.9959L37.7654 24.7264C36.5271 23.5076 35.1287 22.1248 33.2341 22.1248H33.2029C31.8631 22.1248 29.1248 22.324 27.9256 22.4139L19.7771 1.00372C19.7036 0.810916 19.5567 0.655048 19.3686 0.570151C19.1805 0.485254 18.9665 0.478224 18.7732 0.550596L3.62868 6.23419C3.5324 6.27022 3.44417 6.3249 3.36906 6.39509C3.29395 6.46528 3.23343 6.5496 3.19097 6.64323C3.14851 6.73686 3.12495 6.83794 3.12164 6.94069C3.11832 7.04344 3.13531 7.14583 3.17165 7.242L3.68727 8.59747C3.76083 8.7912 3.90833 8.94778 4.09733 9.03276C4.28634 9.11773 4.50135 9.12415 4.69509 9.0506C4.88882 8.97704 5.04539 8.82954 5.13037 8.64053C5.21535 8.45153 5.22177 8.23652 5.14821 8.04278L4.90993 7.42169L18.5818 2.28497L27.9568 26.9412H27.9256C27.9121 26.8364 27.8776 26.7354 27.824 26.6443L15.4685 5.37872C15.3648 5.20069 15.195 5.07083 14.996 5.01743C14.797 4.96402 14.5849 4.99138 14.406 5.09356L0.390398 13.1404C0.301203 13.1918 0.223036 13.2603 0.160391 13.342C0.0977451 13.4236 0.0518548 13.5169 0.0253567 13.6163C-0.0011414 13.7158 -0.00772498 13.8195 0.00598426 13.9215C0.0196935 14.0235 0.0534253 14.1218 0.105241 14.2108L16.0623 41.5975C16.0855 41.6334 16.1116 41.6674 16.1404 41.699C16.1563 41.7207 16.1732 41.7416 16.1912 41.7615C16.2194 41.7871 16.2494 41.8106 16.281 41.8318C16.3305 41.8778 16.3911 41.9101 16.4568 41.9256C16.544 41.9688 16.6408 41.989 16.7381 41.9842C16.8054 41.9837 16.8723 41.9745 16.9373 41.9568L16.9959 41.9334C17.0404 41.9191 17.0835 41.9008 17.1248 41.8787L20.492 39.9256C20.3774 40.4697 20.4328 41.0358 20.6508 41.5473C20.8688 42.0588 21.2389 42.4909 21.7107 42.785C22.2888 43.1756 27.0388 45.6873 28.4021 45.6873C29.2498 45.6873 30.9138 44.9686 31.8826 44.5154C32.709 46.0495 33.8647 47.3816 35.2668 48.4162C36.6688 49.4509 38.2825 50.1624 39.992 50.4998H40.1052C40.2078 50.5073 40.3109 50.4944 40.4085 50.462C40.5062 50.4296 40.5965 50.3783 40.6743 50.311C40.7521 50.2438 40.8159 50.1618 40.862 50.0699C40.9081 49.9779 40.9357 49.8778 40.9431 49.7752C40.9506 49.6726 40.9377 49.5696 40.9053 49.4719C40.8729 49.3743 40.8216 49.284 40.7544 49.2062C40.6871 49.1284 40.6051 49.0646 40.5132 49.0185C40.4212 48.9723 40.3211 48.9448 40.2185 48.9373C38.7297 48.638 37.3262 48.0108 36.11 47.1014C34.8937 46.1919 33.8953 45.023 33.1873 43.6795C32.8823 43.0629 32.6136 42.429 32.3826 41.7811C31.8279 40.3318 31.2576 38.8358 30.2732 37.9803C29.7537 37.5272 27.8435 36.0272 25.6365 34.2772L22.4802 31.7772C21.3943 30.9178 18.0935 28.2967 17.4568 27.6717C17.2288 27.4766 17.0422 27.2379 16.908 26.9695C16.7739 26.7011 16.6948 26.4086 16.6756 26.1092C16.7249 25.5071 17.0048 24.9474 17.4568 24.5467C18.117 23.8787 19.1443 23.9178 20.5037 24.6561L33.5935 31.7498C33.7064 31.8107 33.8325 31.8429 33.9607 31.8436C34.1363 31.8481 34.3083 31.7933 34.4489 31.688C34.5896 31.5827 34.6906 31.4331 34.7357 31.2634C34.7809 31.0936 34.7675 30.9136 34.6978 30.7524C34.628 30.5912 34.506 30.4581 34.3513 30.3748L30.0779 28.0701C30.0697 28.0276 30.0579 27.9857 30.0427 27.9451L28.5154 23.9373C29.8396 23.8436 32.0935 23.6951 33.2224 23.6873C34.4724 23.6873 35.5349 24.7342 36.656 25.8397L36.9334 26.1131C37.8318 26.992 44.3552 37.0506 48.5466 43.6131C48.5999 43.7035 48.6708 43.7823 48.7552 43.8448C48.8395 43.9072 48.9356 43.952 49.0377 43.9765C49.1397 44.001 49.2457 44.0047 49.3492 43.9873C49.4527 43.9699 49.5516 43.9319 49.6401 43.8754C49.7286 43.819 49.8048 43.7453 49.8642 43.6587C49.9235 43.5722 49.9649 43.4746 49.9857 43.3717C50.0065 43.2688 50.0063 43.1628 49.9853 43.06C49.9642 42.9572 49.9226 42.8596 49.8631 42.7733H49.8787ZM30.4881 41.2108C30.6443 41.6014 30.7966 41.992 30.9412 42.3514C31.0427 42.617 31.1404 42.8709 31.242 43.1326C30.0896 43.6678 28.824 44.16 28.4021 44.1639C27.6521 44.1443 23.5193 42.1365 22.5662 41.5154C22.3057 41.3618 22.1148 41.1133 22.0333 40.8222C21.9517 40.531 21.9859 40.2195 22.1287 39.9529C22.1983 39.771 22.3072 39.6066 22.4477 39.4715C22.5881 39.3365 22.7566 39.2341 22.9412 39.1717C23.4646 39.5623 24.074 39.9529 24.6365 40.2967C25.0935 40.5818 25.5232 40.8514 25.7615 41.035C26.1834 41.367 26.9607 41.4725 27.7771 41.4725C28.687 41.4636 29.5942 41.3734 30.4881 41.2029V41.2108ZM29.7615 39.7693C28.8279 39.9178 27.1013 40.0389 26.7224 39.824C26.4177 39.5858 25.9763 39.3123 25.4646 38.9881C24.9529 38.6639 24.3982 38.3201 23.9334 37.9764L26.1716 36.6873C27.6951 37.8904 28.906 38.8397 29.2654 39.1717C29.458 39.3462 29.6262 39.5459 29.7654 39.7654L29.7615 39.7693ZM16.3435 23.4608C15.9692 23.8037 15.6674 24.2182 15.456 24.6798C15.2447 25.1415 15.1281 25.6408 15.1131 26.1483C15.1344 26.6526 15.258 27.1474 15.4762 27.6027C15.6944 28.0579 16.0028 28.4641 16.3826 28.7967C16.8631 29.2654 18.449 30.5662 21.5271 33.0076L24.6873 35.5076L24.8591 35.6404L17.0193 40.1443L1.85134 14.1053L14.5115 6.83575L25.4138 25.5506L21.2459 23.2928C18.699 21.9139 17.1873 22.6209 16.3435 23.4608Z" fill="#3F8FEE"/>
</svg>
