<svg width="50" height="51" viewBox="0 0 50 51" fill="none" xmlns="http://www.w3.org/2000/svg">
<path d="M25 23.9375C26.5452 23.9375 28.0556 23.4793 29.3404 22.6209C30.6252 21.7624 31.6265 20.5423 32.2178 19.1147C32.8091 17.6872 32.9638 16.1163 32.6624 14.6009C32.3609 13.0854 31.6169 11.6933 30.5243 10.6007C29.4317 9.50813 28.0396 8.76407 26.5241 8.46262C25.0087 8.16117 23.4378 8.31589 22.0103 8.90719C20.5827 9.4985 19.3626 10.4999 18.5041 11.7846C17.6457 13.0694 17.1875 14.5798 17.1875 16.125C17.19 18.1962 18.0139 20.1819 19.4785 21.6465C20.9431 23.1111 22.9288 23.935 25 23.9375ZM25 11.4375C25.9271 11.4375 26.8334 11.7124 27.6042 12.2275C28.3751 12.7426 28.9759 13.4746 29.3307 14.3312C29.6855 15.1877 29.7783 16.1302 29.5974 17.0395C29.4166 17.9488 28.9701 18.784 28.3146 19.4396C27.659 20.0951 26.8238 20.5416 25.9145 20.7224C25.0052 20.9033 24.0627 20.8105 23.2062 20.4557C22.3496 20.1009 21.6176 19.5001 21.1025 18.7292C20.5874 17.9584 20.3125 17.0521 20.3125 16.125C20.3137 14.8822 20.808 13.6906 21.6868 12.8118C22.5656 11.933 23.7572 11.4387 25 11.4375ZM28.125 25.5H21.875C18.5611 25.5041 15.384 26.8224 13.0407 29.1657C10.6974 31.509 9.37913 34.6861 9.375 38V41.125C9.375 41.5394 9.53962 41.9368 9.83265 42.2299C10.1257 42.5229 10.5231 42.6875 10.9375 42.6875H39.0625C39.4769 42.6875 39.8743 42.5229 40.1674 42.2299C40.4604 41.9368 40.625 41.5394 40.625 41.125V38C40.6209 34.6861 39.3026 31.509 36.9593 29.1657C34.616 26.8224 31.4389 25.5041 28.125 25.5ZM25.4375 28.625L27.9 36.0156L25 38.9156L22.1 36.0156L24.5641 28.625H25.4375ZM12.5 38C12.5039 35.6224 13.4106 33.335 15.0367 31.6004C16.6628 29.8658 18.887 28.8135 21.2594 28.6563L18.8297 35.9438C18.7381 36.219 18.725 36.5144 18.7918 36.7967C18.8586 37.079 19.0026 37.3371 19.2078 37.5422L21.2281 39.5625H12.5V38ZM37.5 39.5625H28.7719L30.7922 37.5422C30.9974 37.3371 31.1414 37.079 31.2082 36.7967C31.275 36.5144 31.2619 36.219 31.1703 35.9438L28.7406 28.6563C31.113 28.8135 33.3372 29.8658 34.9633 31.6004C36.5894 33.335 37.4961 35.6224 37.5 38V39.5625Z" fill="#3F8FEE"/>
</svg>
