<svg width="50" height="51" viewBox="0 0 50 51" fill="none" xmlns="http://www.w3.org/2000/svg">
<g clip-path="url(#clip0_3782_16848)">
<path d="M25.0958 4.40628C24.5558 4.40237 24.1153 4.83694 24.1114 5.376C24.1075 5.91507 24.5411 6.35549 25.0812 6.3594C25.6202 6.36331 26.0606 5.92971 26.0646 5.39065C26.0685 4.85159 25.6349 4.41116 25.0958 4.40628ZM25.0514 10.2656C21.2808 10.2388 18.1928 13.2807 18.1643 17.0501C18.1358 20.8194 21.1794 23.9088 24.9488 23.9372L25.0012 23.9374C28.7466 23.9374 31.8076 20.9046 31.8359 17.1527C31.8644 13.3836 28.8209 10.294 25.0514 10.2656ZM25.001 21.9844L24.9635 21.9842C22.271 21.9639 20.097 19.7571 20.1173 17.0648C20.1375 14.3846 22.3238 12.2184 24.9992 12.2184L25.0367 12.2186C27.7292 12.2389 29.9032 14.4457 29.8829 17.138C29.8626 19.8182 27.6764 21.9844 25.001 21.9844ZM29.2609 5.1469C28.7529 4.96663 28.1944 5.23274 28.0142 5.74114C27.834 6.24954 28.1001 6.80764 28.6084 6.98792C32.9099 8.51243 35.7766 12.6092 35.7422 17.1822C35.7382 17.7214 36.1721 18.1619 36.7114 18.166H36.7189C37.2547 18.166 37.6912 17.7336 37.6953 17.1968C37.7359 11.7918 34.3464 6.94934 29.2609 5.1469Z" fill="#3F8FEE"/>
<path d="M30.9923 37.2619C37.4877 28.9011 41.5469 24.5412 41.6017 17.2264C41.6705 8.02295 34.2015 0.5 24.9988 0.5C15.9035 0.5 8.46814 7.86601 8.399 16.9773C8.34314 24.4905 12.4778 28.8444 19.018 37.2605C12.5117 38.2328 8.399 40.6759 8.399 43.6641C8.399 45.6657 10.2492 47.4619 13.6089 48.7217C16.6668 49.8684 20.7124 50.4999 25.0004 50.4999C29.2884 50.4999 33.334 49.8684 36.3919 48.7217C39.7515 47.4618 41.6017 45.6656 41.6017 43.664C41.6017 40.6774 37.4928 38.235 30.9923 37.2619ZM10.352 16.9921C10.413 8.95215 16.973 2.45312 24.999 2.45312C33.12 2.45312 39.7093 9.09258 39.6487 17.2118C39.5968 24.1585 35.2919 28.4395 28.4191 37.3987C27.1932 38.996 26.0675 40.5062 25.0018 41.9834C23.9393 40.5053 22.836 39.0222 21.5918 37.3981C14.4349 28.0638 10.2991 24.1063 10.352 16.9921ZM25.0004 48.5469C16.6165 48.5469 10.352 45.969 10.352 43.6641C10.352 41.9547 14.0969 39.7953 20.3936 39.0476C21.7855 40.8738 23.0058 42.533 24.2027 44.2275C24.2928 44.3551 24.4122 44.4592 24.5508 44.5311C24.6895 44.6029 24.8433 44.6405 24.9995 44.6406H25.0004C25.1564 44.6406 25.3102 44.6032 25.4488 44.5316C25.5874 44.4599 25.7068 44.3561 25.797 44.2288C26.9826 42.5563 28.2363 40.8563 29.6163 39.0486C35.9071 39.7972 39.6487 41.9559 39.6487 43.6642C39.6486 45.969 33.3843 48.5469 25.0004 48.5469Z" fill="#3F8FEE"/>
</g>
<defs>
<clipPath id="clip0_3782_16848">
<rect width="50" height="50" fill="white" transform="translate(0 0.5)"/>
</clipPath>
</defs>
</svg>
