<svg width="50" height="51" viewBox="0 0 50 51" fill="none" xmlns="http://www.w3.org/2000/svg">
<g clip-path="url(#clip0_3782_16841)">
<path d="M26.5506 32.9848L26.4388 32.8983C26.1931 32.7278 25.5576 32.3864 24.6865 32.6488C23.6484 32.9615 23.3906 34.3819 24.0961 34.9353C24.5012 35.2529 25.1106 35.5142 25.9321 35.8046C27.7706 36.4545 27.091 39.0472 25.2209 39.0597C24.4911 39.0646 24.1499 39.0182 23.5088 38.5988M25.2208 39.0597V40.0061M25.2208 31.6777V32.553" stroke="#1474FC" stroke-width="1.63281" stroke-miterlimit="10" stroke-linecap="round" stroke-linejoin="round"/>
<path d="M35.7779 49.426H14.2225C12.0732 49.426 10.3311 47.6837 10.3311 45.5346V22.1876C10.3311 21.5599 10.4829 20.9415 10.7736 20.3852C11.0644 19.8289 11.4854 19.3512 12.0007 18.9928L22.3641 11.7855C22.9995 11.3436 23.7523 11.1012 24.5262 11.0893C25.3 11.0774 26.0599 11.2966 26.7086 11.7188L37.9006 19.0028C38.4436 19.3563 38.8898 19.8397 39.1987 20.4092C39.5076 20.9788 39.6693 21.6165 39.6693 22.2644V45.5346C39.6694 47.6837 37.9272 49.426 35.7779 49.426Z" stroke="#3F8FEE" stroke-width="2" stroke-miterlimit="10" stroke-linecap="round" stroke-linejoin="round"/>
<path d="M17.1029 15.4439C16.1155 14.0168 15.5371 12.2851 15.5371 10.4182C15.5371 5.53379 19.4967 1.57422 24.3811 1.57422C29.2654 1.57422 33.225 5.53379 33.225 10.4182C33.225 15.3025 29.2654 19.2621 24.3811 19.2621M24.3811 20.4196V17.9574" stroke="#3F8FEE" stroke-width="2" stroke-miterlimit="10" stroke-linecap="round" stroke-linejoin="round"/>
<path d="M25.0041 45.3334C30.2498 45.3334 34.5023 41.0809 34.5023 35.8352C34.5023 30.5894 30.2498 26.3369 25.0041 26.3369C19.7584 26.3369 15.5059 30.5894 15.5059 35.8352C15.5059 41.0809 19.7584 45.3334 25.0041 45.3334Z" stroke="#3F8FEE" stroke-width="1.63281" stroke-miterlimit="10" stroke-linecap="round" stroke-linejoin="round"/>
</g>
<defs>
<clipPath id="clip0_3782_16841">
<rect width="50" height="50" fill="white" transform="translate(0 0.5)"/>
</clipPath>
</defs>
</svg>
