<svg width="50" height="51" viewBox="0 0 50 51" fill="none" xmlns="http://www.w3.org/2000/svg">
<g clip-path="url(#clip0_3782_16873)">
<path d="M49.0234 24.5234C48.4842 24.5234 48.0469 24.9606 48.0469 25.5C48.0469 38.2081 37.7081 48.5469 25 48.5469C12.2919 48.5469 1.95312 38.2081 1.95312 25.5C1.95312 12.7919 12.2919 2.45312 25 2.45312C32.4854 2.45312 39.3781 6.00916 43.7043 12.0335L43.0822 11.8985C42.5552 11.7844 42.0352 12.1188 41.9208 12.6459C41.8065 13.1729 42.1411 13.6929 42.6682 13.8073L45.5979 14.4426C45.6676 14.4578 45.7372 14.465 45.8058 14.465C46.2554 14.465 46.66 14.1526 46.7592 13.6952L47.3945 10.7655C47.5089 10.2384 47.1742 9.71842 46.6472 9.60416C46.1204 9.48991 45.6002 9.82447 45.4859 10.3516L45.3498 10.9789C43.1808 7.94177 40.3404 5.40906 37.0664 3.60477C33.3807 1.57363 29.2083 0.5 25 0.5C18.3223 0.5 12.0442 3.10038 7.32233 7.82233C2.60048 12.5442 0 18.8223 0 25.5C0 32.1777 2.60048 38.4558 7.32233 43.1777C12.0442 47.8996 18.3223 50.5 25 50.5C31.6777 50.5 37.9558 47.8996 42.6777 43.1777C47.3996 38.4558 50 32.1777 50 25.5C50 24.9606 49.5627 24.5234 49.0234 24.5234Z" fill="#3F8FEE"/>
<path d="M9.66991 14.9994C9.20995 14.718 8.60878 14.863 8.32733 15.3228C6.45722 18.3801 5.46875 21.8993 5.46875 25.4999C5.46875 36.2694 14.2304 45.0311 24.9999 45.0311C35.7694 45.0311 44.5311 36.2695 44.5311 25.4999C44.5311 14.7303 35.7694 5.96875 24.9999 5.96875C21.3993 5.96875 17.8799 6.95742 14.8223 8.82763C14.3622 9.10907 14.2174 9.71024 14.4989 10.1703C14.7803 10.6304 15.3815 10.7752 15.8415 10.4937C18.5921 8.81112 21.7591 7.92177 24.9999 7.92177C34.6925 7.92177 42.578 15.8073 42.578 25.4998C42.578 35.1924 34.6925 43.0779 24.9999 43.0779C15.3074 43.0779 7.42187 35.1924 7.42187 25.4998C7.42187 22.259 8.31112 19.0922 9.99344 16.342C10.275 15.882 10.1301 15.2808 9.66991 14.9994Z" fill="#3F8FEE"/>
<path d="M11.2204 11.66L11.2199 11.6605C10.8223 12.0249 10.7956 12.6424 11.1602 13.04C11.2516 13.1399 11.3628 13.2197 11.4868 13.2742C11.6108 13.3287 11.7448 13.3567 11.8802 13.3565C12.1246 13.3568 12.3602 13.2651 12.5402 13.0997C12.9377 12.7353 12.9647 12.1175 12.6001 11.72C12.2358 11.3226 11.6179 11.2954 11.2204 11.66ZM19.0434 27.4531V33.3124C19.0434 33.8518 19.4807 34.289 20.0199 34.289C20.5592 34.289 20.9965 33.8518 20.9965 33.3124V31.3592H22.9497V33.3124C22.9497 33.8518 23.387 34.289 23.9263 34.289C24.4655 34.289 24.9028 33.8518 24.9028 33.3124V27.4531C24.9028 25.8377 23.5886 24.5234 21.9731 24.5234C20.3576 24.5234 19.0434 25.8377 19.0434 27.4531ZM22.9497 27.4531V29.4061H20.9965V27.4531C20.9965 26.9146 21.4346 26.4765 21.9731 26.4765C22.5116 26.4765 22.9497 26.9146 22.9497 27.4531ZM11.7192 25.5V33.3124C11.7192 33.8518 12.1565 34.289 12.6957 34.289H14.6489C16.2644 34.289 17.5785 32.9748 17.5785 31.3593V27.4531C17.5785 25.8377 16.2644 24.5234 14.6489 24.5234H12.6957C12.1564 24.5234 11.7192 24.9607 11.7192 25.5ZM13.6723 26.4765H14.6489C15.1874 26.4765 15.6254 26.9146 15.6254 27.4531V31.3593C15.6254 31.8978 15.1874 32.3359 14.6489 32.3359H13.6723V26.4765ZM36.0429 26.5497C36.2769 26.4529 36.5328 26.4521 36.7634 26.5476L37.2826 26.7627C37.7809 26.9689 38.3523 26.7325 38.5585 26.2341C38.7649 25.7357 38.5282 25.1645 38.0299 24.9582L37.5107 24.7431C36.798 24.448 36.0113 24.4487 35.2955 24.7453C34.5794 25.0419 34.0226 25.5977 33.7276 26.3101C33.4324 27.0227 33.4331 27.8095 33.7296 28.5255C34.0262 29.2414 34.582 29.7982 35.2946 30.0934L36.333 30.5235C36.8131 30.7223 37.0419 31.2748 36.843 31.7548C36.7475 31.9854 36.5661 32.1658 36.3322 32.2627C36.0982 32.3597 35.8424 32.3604 35.6118 32.2649L35.0926 32.0499C34.5943 31.8435 34.0232 32.0801 33.8166 32.5784C33.6103 33.0766 33.8469 33.6479 34.3452 33.8542L34.8644 34.0693C35.2142 34.2148 35.5892 34.2898 35.968 34.2901C36.3442 34.2901 36.7208 34.2158 37.0796 34.0671C37.7956 33.7705 38.3525 33.2148 38.6477 32.5022C39.2586 31.0272 38.5557 29.3301 37.0806 28.719L36.0421 28.2889C35.8116 28.1934 35.6312 28.012 35.5343 27.778C35.4374 27.544 35.4367 27.2882 35.5323 27.0575C35.6276 26.8269 35.809 26.6467 36.0429 26.5497ZM27.3442 24.5234C26.805 24.5234 26.3677 24.9606 26.3677 25.5V28.4296C26.3677 29.7028 27.184 30.7888 28.3208 31.1918V33.3123C28.3208 33.8517 28.7581 34.2889 29.2973 34.2889C29.8366 34.2889 30.2739 33.8517 30.2739 33.3123V31.1917C31.4107 30.7886 32.227 29.7026 32.227 28.4295V25.4999C32.227 24.9605 31.7897 24.5233 31.2504 24.5233C30.7112 24.5233 30.2739 24.9605 30.2739 25.4999V28.4296C30.2739 28.968 29.8358 29.4061 29.2972 29.4061C28.7588 29.4061 28.3208 28.968 28.3208 28.4296V25.5C28.3208 24.9607 27.8835 24.5234 27.3442 24.5234ZM26.9534 12.3164H23.0472C22.5079 12.3164 22.0706 12.7536 22.0706 13.293C22.0706 13.8323 22.5079 14.2696 23.0472 14.2696H25.6251L23.58 20.8142C23.4191 21.3289 23.706 21.8766 24.2208 22.0376C24.3178 22.0679 24.4158 22.0823 24.5123 22.0823C24.9281 22.0823 25.3136 21.8145 25.4441 21.3968L27.8854 13.5843C27.9311 13.4381 27.9418 13.2832 27.9165 13.1321C27.8913 12.981 27.8309 12.838 27.7402 12.7146C27.6494 12.5912 27.5309 12.4908 27.3943 12.4217C27.2576 12.3525 27.1066 12.3164 26.9534 12.3164Z" fill="#3F8FEE"/>
</g>
<defs>
<clipPath id="clip0_3782_16873">
<rect width="50" height="50" fill="white" transform="translate(0 0.5)"/>
</clipPath>
</defs>
</svg>
