<svg width="50" height="51" viewBox="0 0 50 51" fill="none" xmlns="http://www.w3.org/2000/svg">
<path d="M38.8748 14.0495C40.1788 14.0479 41.4288 13.5291 42.3508 12.607C43.2727 11.6849 43.7913 10.4347 43.7928 9.13076C43.5623 2.62061 34.185 2.62295 33.9553 9.13076C33.9567 10.4349 34.4754 11.6851 35.3975 12.6072C36.3197 13.5294 37.5707 14.0481 38.8748 14.0495ZM38.8748 5.77607C39.7558 5.78952 40.5961 6.14891 41.2143 6.77665C41.8325 7.40439 42.1791 8.25009 42.1791 9.13115C42.1791 10.0122 41.8325 10.8579 41.2143 11.4857C40.5961 12.1134 39.7558 12.4728 38.8748 12.4862C37.9849 12.4862 37.1314 12.1327 36.5021 11.5034C35.8729 10.8742 35.5193 10.0207 35.5193 9.13076C35.5193 8.24084 35.8729 7.38736 36.5021 6.75809C37.1314 6.12881 37.9849 5.77607 38.8748 5.77607ZM43.8076 21.5917H40.0154C39.886 21.5927 39.7576 21.568 39.6378 21.5189C39.5181 21.4698 39.4093 21.3974 39.3178 21.3058L37.0865 19.1284C37.2297 18.3812 37.1567 17.6086 36.876 16.9015C36.5954 16.1943 36.1187 15.5819 35.5021 15.1362L32.6857 13.5253C32.0638 13.171 31.3624 12.9797 30.6467 12.969L23.1904 12.8519C22.1682 12.841 21.1804 13.2214 20.4295 13.9151L15.449 18.5823C15.1602 18.8517 14.929 19.1768 14.7692 19.538C14.6094 19.8992 14.5244 20.289 14.5193 20.6839C14.5207 21.2666 14.6934 21.836 15.0158 22.3214C15.3382 22.8068 15.7961 23.1868 16.3327 23.414C16.8693 23.6413 17.4608 23.7058 18.0337 23.5996C18.6067 23.4934 19.1358 23.2211 19.5553 22.8167L22.6264 19.7362C22.7709 19.5922 22.9443 19.4804 23.135 19.4081C23.3258 19.3358 23.5297 19.3047 23.7334 19.3167L25.899 19.4183L23.4076 22.9933C22.9083 23.6662 22.5598 24.4387 22.3859 25.2584C22.212 26.0781 22.2168 26.9256 22.3998 27.7433L19.8162 30.9112C19.7288 31.0207 19.6179 31.109 19.4918 31.1697C19.3656 31.2305 19.2273 31.262 19.0873 31.262H13.0287C12.1744 31.262 11.3551 31.6014 10.7511 32.2054C10.147 32.8095 9.80762 33.6288 9.80762 34.4831C9.80762 35.3374 10.147 36.1567 10.7511 36.7608C11.3551 37.3648 12.1744 37.7042 13.0287 37.7042H18.11C18.3174 37.7042 18.5163 37.6218 18.6629 37.4751C18.8096 37.3285 18.892 37.1296 18.892 36.9222C18.892 36.7148 18.8096 36.5158 18.6629 36.3692C18.5163 36.2225 18.3174 36.1401 18.11 36.1401H13.0287C12.808 36.1449 12.5886 36.1056 12.3833 36.0245C12.178 35.9433 11.991 35.822 11.8333 35.6676C11.6755 35.5132 11.5501 35.3289 11.4646 35.1254C11.379 34.922 11.3349 34.7034 11.3349 34.4827C11.3349 34.262 11.379 34.0435 11.4646 33.84C11.5501 33.6365 11.6755 33.4522 11.8333 33.2978C11.991 33.1434 12.178 33.0221 12.3833 32.941C12.5886 32.8598 12.808 32.8205 13.0287 32.8253H19.0873C19.46 32.826 19.8281 32.743 20.1644 32.5824C20.5007 32.4217 20.7966 32.1875 21.0303 31.8972L23.1615 29.2823C23.8714 30.2131 24.6977 31.0491 25.6201 31.7698L22.5857 35.7667C22.3006 36.2042 21.6881 36.1448 21.2373 36.1401C21.0299 36.1401 20.831 36.2225 20.6843 36.3692C20.5377 36.5158 20.4553 36.7148 20.4553 36.9222C20.4553 37.1296 20.5377 37.3285 20.6843 37.4751C20.831 37.6218 21.0299 37.7042 21.2373 37.7042C21.7181 37.7766 22.2094 37.7235 22.6635 37.5501C23.1177 37.3767 23.5194 37.0888 23.8295 36.7144L26.7904 32.8159L28.7061 34.5269C28.9166 34.7151 29.085 34.9457 29.2004 35.2035C29.3157 35.4613 29.3754 35.7405 29.3756 36.0229V43.4269C29.3711 43.8693 29.4546 44.3083 29.6212 44.7182C29.7879 45.1281 30.0344 45.5008 30.3464 45.8146C30.6584 46.1284 31.0297 46.377 31.4386 46.546C31.8476 46.7151 32.286 46.8011 32.7285 46.7991C33.171 46.7971 33.6087 46.7072 34.0162 46.5346C34.4236 46.3619 34.7926 46.11 35.1018 45.7935C35.411 45.4769 35.6542 45.102 35.8172 44.6907C35.9802 44.2793 36.0598 43.8396 36.0514 43.3972L36.0123 37.6745C36.0109 37.4673 35.9272 37.2692 35.7796 37.1237C35.6321 36.9782 35.4328 36.8973 35.2256 36.8987C35.0184 36.9002 34.8202 36.9839 34.6748 37.1314C34.5293 37.279 34.4484 37.4782 34.4498 37.6854L34.4889 43.4065C34.4901 43.6396 34.4455 43.8707 34.3575 44.0865C34.2695 44.3024 34.1398 44.4988 33.9759 44.6645C33.6448 44.9992 33.1944 45.1887 32.7236 45.1913C32.2529 45.1939 31.8004 45.0094 31.4657 44.6783C31.1309 44.3473 30.9415 43.8968 30.9389 43.4261V36.0237C30.9386 35.5211 30.8324 35.0242 30.6271 34.5654C30.4218 34.1066 30.1221 33.6963 29.7475 33.3612L26.4959 30.4581C25.4735 29.7154 24.6196 28.765 23.9904 27.669C23.8792 27.3427 23.818 27.0013 23.8092 26.6565C23.799 25.6615 24.1087 24.6895 24.6928 23.8839L27.8201 19.3948C27.9192 19.2594 27.98 19.0997 27.9961 18.9326C28.0121 18.7655 27.9829 18.5972 27.9114 18.4454C27.84 18.2935 27.7289 18.1637 27.59 18.0695C27.451 17.9754 27.2892 17.9205 27.1217 17.9104L23.8092 17.755C23.3875 17.7335 22.9661 17.8005 22.5719 17.9516C22.1777 18.1027 21.8194 18.3346 21.5201 18.6323L18.4545 21.7065C18.3253 21.8385 18.1711 21.9432 18.0009 22.0147C17.8306 22.0862 17.6479 22.123 17.4632 22.1229C17.2786 22.1227 17.0959 22.0857 16.9257 22.014C16.7556 21.9422 16.6015 21.8372 16.4725 21.7051C16.3436 21.573 16.2423 21.4165 16.1746 21.2447C16.107 21.0729 16.0744 20.8893 16.0786 20.7048C16.0829 20.5202 16.124 20.3383 16.1996 20.1698C16.2751 20.0014 16.3836 19.8497 16.5186 19.7237L21.4936 15.0612C21.9489 14.6429 22.5456 14.4124 23.1639 14.4159L30.6248 14.5331C31.6068 14.4472 33.5936 15.9261 34.6639 16.4597C35.0484 16.7474 35.3353 17.1462 35.4859 17.6022C35.6365 18.0583 35.6435 18.5495 35.5061 19.0097L30.9076 25.9183C30.5909 26.3928 30.4495 26.9628 30.5077 27.5303C30.5658 28.0978 30.82 28.6273 31.2264 29.0276L34.0443 31.8151C34.276 32.0454 34.4072 32.358 34.4092 32.6847L34.4248 34.5604C34.4257 34.6631 34.4468 34.7647 34.4869 34.8592C34.527 34.9538 34.5853 35.0395 34.6586 35.1115C34.7318 35.1835 34.8185 35.2404 34.9137 35.2789C35.0089 35.3173 35.1108 35.3367 35.2135 35.3358C35.3162 35.335 35.4177 35.3139 35.5122 35.2738C35.6068 35.2337 35.6925 35.1753 35.7645 35.1021C35.8365 35.0289 35.8934 34.9422 35.9319 34.8469C35.9704 34.7517 35.9897 34.6499 35.9889 34.5472C35.9576 33.3167 36.1936 31.6206 35.1467 30.7073L32.3248 27.9159C32.1771 27.7709 32.0846 27.5789 32.0632 27.3729C32.0418 27.167 32.0929 26.9601 32.2076 26.7878L33.5998 24.694L36.1521 27.0987C36.6276 27.543 37.2537 27.7909 37.9045 27.7925H40.6092C40.8166 27.7925 41.0155 27.7101 41.1622 27.5634C41.3088 27.4168 41.3912 27.2179 41.3912 27.0104C41.3912 26.803 41.3088 26.6041 41.1622 26.4575C41.0155 26.3108 40.8166 26.2284 40.6092 26.2284H37.9061C37.6521 26.2257 37.4082 26.1288 37.2217 25.9565L34.4795 23.3745L36.3389 20.5823L38.2209 22.419C38.4567 22.6544 38.7369 22.8408 39.0452 22.9672C39.3535 23.0937 39.6838 23.1578 40.017 23.1558H43.8084C44.0101 23.1604 44.209 23.2047 44.3936 23.2862C44.5783 23.3676 44.745 23.4847 44.8844 23.6306C45.0238 23.7765 45.1331 23.9485 45.2061 24.1366C45.279 24.3248 45.3142 24.5255 45.3096 24.7272C45.305 24.929 45.2606 25.1279 45.1792 25.3125C45.0977 25.4971 44.9807 25.6639 44.8347 25.8033C44.6888 25.9427 44.5168 26.052 44.3287 26.1249C44.1405 26.1979 43.9398 26.233 43.7381 26.2284C43.5307 26.2377 43.3355 26.3291 43.1954 26.4823C43.0553 26.6356 42.9819 26.8382 42.9912 27.0456C43.0005 27.253 43.0919 27.4482 43.2451 27.5883C43.3984 27.7284 43.601 27.8018 43.8084 27.7925C44.6306 27.7925 45.4191 27.4659 46.0004 26.8845C46.5818 26.3031 46.9084 25.5147 46.9084 24.6925C46.9084 23.8703 46.5818 23.0818 46.0004 22.5004C45.4191 21.9191 44.6306 21.5925 43.8084 21.5925L43.8076 21.5917ZM6.8459 6.17998H7.86387C8.07127 6.17998 8.27019 6.09759 8.41685 5.95093C8.56351 5.80427 8.6459 5.60536 8.6459 5.39795C8.6459 5.19054 8.56351 4.99163 8.41685 4.84497C8.27019 4.69831 8.07127 4.61592 7.86387 4.61592H6.8459C6.63859 4.61592 6.43978 4.69827 6.2932 4.84486C6.14661 4.99144 6.06426 5.19025 6.06426 5.39756C6.06426 5.60486 6.14661 5.80368 6.2932 5.95026C6.43978 6.09685 6.63859 6.17998 6.8459 6.17998ZM11.6693 6.35264H17.5482C17.7555 6.35264 17.9544 6.27029 18.1009 6.1237C18.2475 5.97711 18.3299 5.7783 18.3299 5.571C18.3299 5.36369 18.2475 5.16488 18.1009 5.01829C17.9544 4.87171 17.7555 4.78936 17.5482 4.78936H11.6693C11.462 4.78936 11.2632 4.87171 11.1166 5.01829C10.97 5.16488 10.8877 5.36369 10.8877 5.571C10.8877 5.7783 10.97 5.97711 11.1166 6.1237C11.2632 6.27029 11.462 6.35264 11.6693 6.35264ZM13.5904 9.2831C13.3832 9.2831 13.1845 9.36542 13.038 9.51193C12.8915 9.65844 12.8092 9.85715 12.8092 10.0644C12.8092 10.2716 12.8915 10.4703 13.038 10.6168C13.1845 10.7633 13.3832 10.8456 13.5904 10.8456H14.6084C14.8156 10.8456 15.0143 10.7633 15.1608 10.6168C15.3073 10.4703 15.3896 10.2716 15.3896 10.0644C15.3896 9.85715 15.3073 9.65844 15.1608 9.51193C15.0143 9.36542 14.8156 9.2831 14.6084 9.2831H13.5904ZM3.90605 11.0198H9.78496C9.99237 11.0198 10.1913 10.9374 10.3379 10.7908C10.4846 10.6441 10.567 10.4452 10.567 10.2378C10.567 10.0304 10.4846 9.83147 10.3379 9.68481C10.1913 9.53815 9.99237 9.45576 9.78496 9.45576H3.90605C3.69865 9.45576 3.49973 9.53815 3.35308 9.68481C3.20642 9.83147 3.12402 10.0304 3.12402 10.2378C3.12402 10.4452 3.20642 10.6441 3.35308 10.7908C3.49973 10.9374 3.69865 11.0198 3.90605 11.0198ZM4.9248 44.7909H3.90684C3.69953 44.7909 3.50072 44.8733 3.35413 45.0199C3.20755 45.1664 3.1252 45.3653 3.1252 45.5726C3.1252 45.7799 3.20755 45.9787 3.35413 46.1253C3.50072 46.2718 3.69953 46.3542 3.90684 46.3542H4.9248C5.13211 46.3542 5.33092 46.2718 5.47751 46.1253C5.62409 45.9787 5.70645 45.7799 5.70645 45.5726C5.70645 45.3653 5.62409 45.1664 5.47751 45.0199C5.33092 44.8733 5.13211 44.7909 4.9248 44.7909ZM14.6084 44.6175H8.73027C8.52297 44.6175 8.32416 44.6998 8.17757 44.8464C8.03098 44.993 7.94863 45.1918 7.94863 45.3991C7.94863 45.6064 8.03098 45.8052 8.17757 45.9518C8.32416 46.0984 8.52297 46.1808 8.73027 46.1808H14.6084C14.8157 46.1808 15.0145 46.0984 15.1611 45.9518C15.3077 45.8052 15.39 45.6064 15.39 45.3991C15.39 45.1918 15.3077 44.993 15.1611 44.8464C15.0145 44.6998 14.8157 44.6175 14.6084 44.6175Z" fill="#3F8FEE"/>
<path d="M17.548 40.1236H16.5293C16.3219 40.1236 16.123 40.206 15.9763 40.3527C15.8297 40.4993 15.7473 40.6983 15.7473 40.9057C15.7473 41.1131 15.8297 41.312 15.9763 41.4586C16.123 41.6053 16.3219 41.6877 16.5293 41.6877H17.548C17.7555 41.6877 17.9544 41.6053 18.101 41.4586C18.2477 41.312 18.3301 41.1131 18.3301 40.9057C18.3301 40.6983 18.2477 40.4993 18.101 40.3527C17.9544 40.206 17.7555 40.1236 17.548 40.1236ZM13.5059 40.7314C13.5059 40.5242 13.4236 40.3255 13.277 40.179C13.1305 40.0325 12.9318 39.9502 12.7246 39.9502H6.8457C6.6385 39.9502 6.43979 40.0325 6.29328 40.179C6.14676 40.3255 6.06445 40.5242 6.06445 40.7314C6.06445 40.9386 6.14676 41.1374 6.29328 41.2839C6.43979 41.4304 6.6385 41.5127 6.8457 41.5127H12.7246C12.9318 41.5127 13.1305 41.4304 13.277 41.2839C13.4236 41.1374 13.5059 40.9386 13.5059 40.7314Z" fill="#3F8FEE"/>
</svg>
