<svg width="25" height="25" viewBox="0 0 25 25" fill="none" xmlns="http://www.w3.org/2000/svg">
<path d="M10.2604 14.8677C9.68545 14.2937 9.33545 13.5137 9.33545 12.6387C9.33545 10.8857 10.7474 9.47266 12.4994 9.47266C13.3664 9.47266 14.1644 9.82366 14.7294 10.3977" stroke="#A5A5AB" stroke-width="1.5" stroke-linecap="round" stroke-linejoin="round"/>
<path d="M15.6049 13.1992C15.3729 14.4892 14.3569 15.5072 13.0679 15.7412" stroke="#A5A5AB" stroke-width="1.5" stroke-linecap="round" stroke-linejoin="round"/>
<path d="M7.15451 17.973C5.56751 16.727 4.22351 14.907 3.24951 12.638C4.23351 10.359 5.58651 8.52896 7.18351 7.27296C8.77051 6.01696 10.6015 5.33496 12.4995 5.33496C14.4085 5.33496 16.2385 6.02696 17.8355 7.29196" stroke="#A5A5AB" stroke-width="1.5" stroke-linecap="round" stroke-linejoin="round"/>
<path d="M19.9473 9.49121C20.6353 10.4052 21.2403 11.4602 21.7493 12.6372C19.7823 17.1942 16.3063 19.9392 12.4993 19.9392C11.6363 19.9392 10.7853 19.7992 9.96729 19.5262" stroke="#A5A5AB" stroke-width="1.5" stroke-linecap="round" stroke-linejoin="round"/>
<path d="M20.3868 4.75L4.61279 20.524" stroke="#A5A5AB" stroke-width="1.5" stroke-linecap="round" stroke-linejoin="round"/>
</svg>
